<svg width="734" height="33" viewBox="0 0 734 33" fill="none" xmlns="http://www.w3.org/2000/svg">
<g opacity="0.3" filter="url(#filter0_d_55838_307)">
<path d="M451.939 23.7702C481.819 23.7638 514.531 23.7252 544.53 23.7754C545.111 23.7764 545.594 23.7793 546 23.7835L545.158 24.1217C546.737 22.6397 546.75 22.7123 547.385 22.117C549.445 20.1847 550.604 18.9365 552.096 17.5172C553.819 15.8772 555.516 14.2616 557.196 12.6606L557.499 12.3673L557.929 12.3395C565.359 11.9041 572.566 11.4756 580.039 11.0411C590.136 10.4538 585.377 11.0075 588.888 10.8555C595.75 10.559 589.899 10.5773 592.588 10.3356C600.447 9.87352 608.376 9.42358 616.249 8.97752C614.329 9.12723 612.409 9.27628 610.469 9.42495C613.9 9.22129 618.813 8.97222 613.073 9.41376C614.345 9.36024 615.532 9.31605 616.838 9.25979C617.188 9.11413 623.262 8.73121 623.812 8.62378C624.362 8.5164 620.948 8.74295 620.969 8.73525C621.19 8.62999 635.206 7.8947 636.217 7.84285C638.889 7.70597 636.557 8.00309 638.828 7.85371C642.735 7.59688 640.113 7.44473 645.428 7.5347C647.524 7.27074 647.712 7.32944 650.377 7.17515C650.728 7.15478 650.451 7.09348 650.605 7.08196C654.635 6.77639 651.543 7.11185 651.565 7.11842C651.939 7.22944 656.264 6.90431 657.177 6.86112C668.628 6.31806 677.019 5.91125 689.094 5.20686C691.705 5.05446 699.651 4.5122 702.178 4.37982C704.67 4.24928 703.339 4.42754 704.646 4.39368C706.721 4.03395 708.713 3.88602 713.414 3.75041C715.15 3.47435 714.934 3.62431 718.278 3.38507C721.062 3.18607 725.904 2.68551 728.98 2.66987C725.464 2.86997 725.833 2.93055 721.879 3.22358C720.563 3.32103 706.828 4.16796 707.861 4.27774C708.4 4.33494 712.947 3.97281 713.124 3.97859C714.154 4.01233 711.62 4.28711 709.366 4.38376C709.926 4.3298 710.601 4.2685 711.203 4.21195C706.137 4.40174 709.644 4.6521 705.775 4.48271C705.297 4.46217 705.478 4.399 704.691 4.39427C704.531 4.42601 705.493 4.42133 704.668 4.48174C703.827 4.54323 702.221 4.53855 701.988 4.63989C701.639 4.78785 705.125 4.52392 705.388 4.51517C705.391 4.51424 705.394 4.5133 705.397 4.51237C707.722 4.43677 702.874 4.7421 702.644 4.76825C701.149 4.93889 702.175 4.93659 699.929 5.13966C698.647 5.25546 695.376 5.43447 694.17 5.5205C692.971 5.60635 694.84 5.55145 694.034 5.61379C693.228 5.67614 692.221 5.6925 691.275 5.7655C690.87 5.79693 690.895 5.86218 690.699 5.87655C688.596 6.03135 689.968 5.80824 688.06 5.93384C686.825 6.01536 682.683 6.39911 685.546 6.26193C684.172 6.35972 682.832 6.45183 681.465 6.54628C682.329 6.5131 683.221 6.47182 684.064 6.44341C681.488 6.56976 680.331 6.75509 678.718 6.86261C677.105 6.97012 675.651 6.92234 673.88 7.09795C670.1 7.47233 679.477 6.83082 680.643 6.78464C681.098 6.76672 679.361 6.98074 679.093 7.00028C677.902 7.08687 676.487 7.09695 675.568 7.15681C672.278 7.37165 670.27 7.59634 667.135 7.80927C656.462 8.53419 643.22 9.40372 633.104 10.047C629.338 10.2865 627.064 10.3122 625.373 10.4192C621.418 10.6696 620.939 10.7983 617.49 11.0155C612.355 11.339 605.115 11.6968 600.827 11.9414C597.859 12.1108 595.178 12.3715 594.406 12.4212C583.682 13.1143 570.632 13.9134 561.743 14.4603C560.259 14.5517 559.051 14.6124 558.071 14.6552L558.801 14.3356C557.493 15.5457 556.722 16.2234 556.32 16.6108C553.646 19.1928 554.429 18.5697 552.246 20.6484C551.067 21.7715 550.786 21.9183 550.627 22.0665C549.221 23.3731 549.025 23.7209 547.947 24.7596C547.569 25.1239 547.191 25.4871 546.814 25.8494L546.469 26.178L546 26.1764C537.95 26.1863 530.149 26.119 522.144 26.1086C521.525 26.1077 521.58 26.0565 521.179 26.0592C519.459 26.0717 520.259 26.1523 518.461 26.1582C514.721 26.1707 510.882 26.1574 506.918 26.1472C506.525 26.1462 506.348 26.0804 505.45 26.0804C504.55 26.0804 503.868 26.1428 502.456 26.1393C498.766 26.1302 495.124 26.0556 491.216 26.0515C490.57 26.051 489.768 26.1302 488.799 26.1294C485.755 26.1267 481.249 26.0548 478.641 26.0522C470.038 26.044 462.101 26.0891 453.997 26.0897C452.093 26.0897 450.406 26.0162 449.415 26.0145C447.181 26.0107 448.866 26.0801 446.603 26.0804C428.118 26.0821 409.561 26.0506 390.858 26.0561C383.513 26.0582 374.572 26.13 367.473 26.1101C364.521 26.1017 363.986 26.0057 361.898 26.0049C358.175 26.0037 357.499 26.1267 353.571 26.139C350.436 26.1486 346.844 26.0258 343.583 26.0334C340.321 26.041 338.816 26.1602 335.07 26.1745C331.984 26.1862 327.676 26.1321 324.317 26.1408C293.531 26.2213 263.216 26.2703 232.24 26.177C221.31 26.144 209.184 26.1611 197.889 26.0439C196.828 26.0328 198.451 25.9176 195.049 25.9418C193.222 25.955 190.671 26.0542 186.447 26.0592C185.301 26.0605 184.152 26.0613 183 26.0617L182.401 26.0597L182.094 25.5536C180.274 22.5771 178.442 19.5733 176.601 16.5495L177.417 17.0506C156.563 15.3753 134.962 13.5408 114.18 11.9406C105.635 11.2828 97.0181 10.6574 88.4182 10.04L89.0176 9.9058C86.6911 11.2564 84.3664 12.6067 82.0455 13.9546L81.7213 14.1383L81.3593 14.0904C54.449 10.809 27.9873 7.55556 4.82012 3.71237C3.21064 3.44531 4.12444 3.27219 5.10372 3.31587C5.99528 3.49 6.81756 3.66628 7.74994 3.85332C8.98088 3.64852 8.75994 3.71469 13.1472 4.31343C15.8483 4.68222 13.7085 4.25059 15.1552 4.39313C17.0307 4.57808 25.8252 5.53323 24.1076 5.55243C24.6566 5.58152 25.1635 5.60693 25.6985 5.63509C32.0535 6.41862 38.231 7.15543 44.4507 7.88887C45.5252 8.01543 45.5842 7.94749 46.6939 8.07862C49.6744 8.43029 52.0312 8.78403 55.0992 9.17225C56.7658 9.38318 57.008 9.32712 59.1892 9.61415C61.3692 9.90105 61.3064 10.0108 64.2978 10.2687C62.3787 9.87317 71.0096 11.0942 74.0852 11.4819C74.5314 11.5383 78.2076 11.8798 80.1506 12.1458C80.5826 12.2048 81.0638 12.2737 81.584 12.3488L81.1742 12.4299C82.7914 11.5378 84.84 10.4164 86.8783 9.20884C87.3658 8.91999 87.7702 8.66406 88.1642 8.41232L88.3429 8.30941L88.5531 8.32522C89.2626 8.34582 89.9467 8.3608 90.8722 8.43006C91.9515 8.51086 93.2406 8.70375 94.6066 8.815C95.9721 8.9262 98.9333 9.08399 99.4749 9.12535C101.43 9.27415 99.2686 9.16848 100.605 9.27684C107.057 9.79895 114.553 10.4229 120.918 10.8803C121.701 10.9366 120.625 10.7762 120.729 10.7818C126.046 11.1071 123.204 10.9823 124.633 11.1625C126.017 11.337 136.184 12.1009 136.269 11.9758C136.568 12.1643 138.838 12.2168 139.425 12.2581C141.71 12.4192 141.251 12.5258 143.468 12.6561C144.282 12.704 142.708 12.4837 143.581 12.5552C145.738 12.7319 147.668 13.0387 150.54 13.2801C151.233 13.3384 151.464 13.2875 152.697 13.3868C153.932 13.4863 159.101 13.9773 156.724 13.6447C159.853 14.0076 160.49 13.9937 164.141 14.284C165.065 14.3577 166.247 14.5619 168.218 14.6824C168.885 14.7231 168.873 14.615 169.875 14.6929C172.167 14.8708 174.316 15.1509 177.224 15.384C177.331 15.3926 177.439 15.4012 177.546 15.4098L177.846 15.4323L178.005 15.6913C179.786 18.6114 181.664 21.6291 183.54 24.6703L183 24.3677C185.026 24.3595 187.058 24.3561 189.075 24.3659C190.621 24.3735 190.235 24.481 192.483 24.4831C192.813 24.4831 195.52 24.3901 197.073 24.3989C198.008 24.4041 202.852 24.4694 203.829 24.4747C205.445 24.4831 205.733 24.3791 206.618 24.3995C209.176 24.4581 207.124 24.6111 210.202 24.4018C211.214 24.5178 213.014 24.5062 213.59 24.6491C214.637 24.4925 215.995 24.643 218.026 24.5905C220.058 24.538 221.723 24.2347 222.215 24.5611C223.164 24.5214 227.207 24.4537 227.888 24.4488C229.898 24.4348 228.823 24.525 230.34 24.5128C230.607 24.5108 230.327 24.4491 232.041 24.4552C233.165 24.4592 241.405 24.463 241.897 24.4715C247.511 24.5681 238.838 24.5327 237.624 24.5995C237.41 24.582 237.198 24.5644 236.969 24.547C234.488 24.5179 235.901 24.6573 237.025 24.6897C238.15 24.7221 240.251 24.6599 241.186 24.7057C241.652 24.7287 241.363 24.8959 239.955 24.8757C241.462 24.9272 239.404 24.9816 240 25.03C240.655 25.083 247.428 25.0994 247.464 25.0072C246.199 25.004 244.624 25.0072 243.345 25.0034C241.672 24.8433 246.753 24.2966 251.413 24.515C254.794 24.673 249.221 24.7987 257.219 24.666C255.989 24.6596 254.949 24.6447 253.831 24.638C253.712 24.5179 255.525 24.6499 256.46 24.6117C256.909 24.593 254.142 24.508 256.544 24.4797C258.61 24.6514 260.2 24.4787 263.665 24.4767C262.702 24.5073 261.738 24.5378 260.775 24.5684C266.63 24.6929 253.031 24.734 264.416 24.8037C263.046 24.8092 261.683 24.8077 260.306 24.8162C260.973 24.8792 259.905 25.0641 260.503 25.1032C262.07 25.2058 264.388 25.1439 266.299 25.153C267.136 25.1567 266.617 25.2067 266.687 25.207C267.833 25.2125 267.58 25.1393 268.585 25.1346C269.85 25.1288 273.503 25.2 274.095 25.1919C275.628 25.1712 273.076 25.0267 273.224 25.0159C274.201 24.946 276.196 25.004 276.091 24.9125C271.29 24.9754 257.453 24.8946 269.971 24.7433C266.52 24.5954 267.517 24.3916 272.479 24.3755C276.584 24.3621 273.935 24.4438 276.072 24.5336C276.348 24.5448 281.846 24.5878 282.127 24.5243C281.907 24.6705 283.696 24.8 282.495 24.9509C282.32 24.9731 280.064 24.9643 280.851 25.0857C281.244 25.1466 282.374 25.2792 282.192 25.3568C282.656 25.3029 283.141 25.2422 283.612 25.1859C286.992 25.1702 287.473 25.2283 289.321 25.3289C289.237 25.2869 287.529 25.1104 290.123 25.1641C290.256 25.1673 290.371 25.2306 291.688 25.2621C294.352 25.325 294.908 25.3446 292.864 25.5306C298.38 25.4245 299.568 25.6318 305.225 25.5712C304.1 25.3321 302.112 25.3913 296.932 25.4374C296.707 25.3805 296.601 25.3242 296.369 25.2668C303.264 25.3957 299.857 25.3825 303.763 25.2671C304.719 25.2388 309.816 25.2691 308.115 25.1081C307.714 25.0702 304.547 25.0746 304.91 25.0149C304.98 25.0035 308.83 24.9746 309.169 24.99C313.429 25.1804 305.817 25.3131 317.547 25.2437C317.87 25.2417 317.984 25.1721 318.615 25.1624C319.803 25.1443 319.818 25.225 320.878 25.2064C321.94 25.1877 323.41 25.0792 325.005 25.1795C327.922 25.3621 321.042 25.4671 317.977 25.3702C316.733 25.6088 338.628 25.614 339.984 25.5936C345.908 25.5047 336.05 25.556 335.542 25.4899C335.331 25.4619 335.436 25.107 332.942 25.3373C332.204 25.4055 335.288 25.4954 333.448 25.533C331.606 25.5707 332.336 25.4662 332.202 25.4589C331.744 25.4339 329.786 25.4726 329.532 25.4578C325.624 25.233 325.982 24.8932 331.162 25.3951C333.418 25.2817 328.24 25.1009 331.044 25.0239C334.453 24.9303 336.941 25.0921 337.37 25.0994C342.506 25.1857 336.583 24.9495 342.857 25.0249C346.351 25.0669 337.629 25.1821 345.607 25.1667C352.284 25.1536 348.678 25.0713 349.163 24.8844C349.278 24.8407 352.936 24.787 347.954 24.8063C347.814 24.855 347.548 24.9191 347.232 24.964C346.01 24.9285 343.972 24.6848 343.324 24.6763C340.154 24.6357 340.307 24.7622 338.438 24.6132C339.773 24.7762 337.6 24.678 336.785 24.7124C333.757 24.8393 337.727 24.8864 330.932 24.7234C331.817 24.7998 332.618 24.8748 333.476 24.9509C332.661 24.9535 331.845 24.9562 331.03 24.9589C329.814 24.7906 325.484 24.8121 329.405 24.6427C324.689 24.5946 322.783 24.6313 321.75 24.7622C321.554 24.7872 320.845 24.7972 320.013 24.7996C320.17 24.8364 320.371 24.9501 320.24 24.964C319.067 25.0867 317.247 24.8748 317.867 24.7939C317.285 24.79 316.824 24.7855 316.661 24.7835C315.63 24.771 317.652 24.6978 316.816 24.6728C316.54 24.6646 313.634 24.6805 313.577 24.6508C313.227 24.4601 318.011 24.5977 308.405 24.4869C308.173 24.6604 312.634 24.6223 311.489 24.8066C310.259 25.0046 307.75 24.739 307.201 24.9819C306.998 24.942 306.907 24.9087 306.732 24.8632C302.846 24.969 302.794 24.7667 301.607 24.722C299.301 24.6348 288.702 24.6479 298.219 24.8232C296.827 24.8407 295.407 24.8488 294.022 24.8643C293.706 24.5016 294.549 24.6459 287.879 24.5905C286.41 24.5783 285.932 24.4187 284.491 24.6082C284.687 24.4224 280.343 24.5346 279.937 24.5121C277.337 24.3654 286.992 24.1612 288.231 24.4898C289.861 24.3619 289.855 24.531 291.674 24.5086C294.303 24.4762 294.668 24.4433 297.789 24.5681C300.861 24.3922 285.764 24.4907 294.916 24.2574C304.07 24.0241 357.372 23.894 369.807 23.859C392.334 23.7957 404.178 23.7544 424.414 23.7649C426.41 23.7657 441.478 23.7489 438.347 23.9521C437.897 23.9812 431.415 24.0585 436.975 24.218C435.844 24.1239 439.113 24.0627 439.387 24.0528C445.677 23.8277 442.036 23.7725 451.939 23.7702ZM481.298 25.5826C468.373 25.5363 477.868 25.6721 475.183 25.9789C476.842 25.9798 478.495 25.9806 480.154 25.9815C479.718 25.9623 479.288 25.9431 478.852 25.9238C478.85 25.9238 478.848 25.9238 478.846 25.9238C479.662 25.8101 480.483 25.6964 481.298 25.5826ZM687.777 6.32074C687.276 6.39196 686.781 6.46291 686.238 6.53584C684.533 6.62799 682.834 6.71997 681.129 6.81211C681.331 6.77227 681.526 6.73252 681.727 6.69267C683.744 6.57002 685.754 6.44787 687.777 6.32074ZM316.169 25.4146C313.752 25.3024 313.97 25.5027 310.758 25.4114C311.151 25.5593 311.588 25.7039 312.003 25.8503C314.448 25.8284 315.004 25.7722 317.659 25.8083C317.35 25.7608 317.034 25.713 316.732 25.6652C316.289 25.6754 315.819 25.687 315.391 25.696C314.709 25.563 318.953 25.5432 316.178 25.4143C316.175 25.4144 316.172 25.4145 316.169 25.4146ZM291.393 25.4741C290.093 25.4549 284.941 25.3825 284.238 25.4438C281.856 25.6514 296.39 25.5197 285.678 25.7043C285.727 25.7334 285.678 25.7619 285.678 25.7908C287.632 25.801 289.58 25.8098 291.548 25.8179C291.443 25.703 291.513 25.5896 291.393 25.4741ZM434.549 25.5955C432.55 25.5795 423.023 25.6771 426.129 25.8086C427.042 25.8471 431.296 25.659 432.912 25.6672C433.959 25.6724 432.786 25.7756 434.852 25.7377C434.761 25.6922 434.704 25.6418 434.543 25.5958C434.545 25.5957 434.547 25.5956 434.549 25.5955ZM438.296 24.9953C436.23 25.0137 434.135 25.037 432.055 25.0565C433.573 25.174 436.56 25.0985 436.736 25.2639C436.167 25.2764 435.604 25.2889 435.035 25.3014C434.599 25.2653 434.17 25.2291 433.742 25.1929C431.956 25.2828 433.038 25.3274 429.713 25.3014C431.723 25.5513 432.097 25.6855 437.79 25.4326C436.715 25.5682 437.727 26.0101 440.882 25.6943C441.473 25.6357 439.007 25.5965 438.979 25.5872C438.6 25.4712 439.968 25.3971 439.561 25.2875C439.378 25.238 437.874 25.2387 437.649 25.1699C437.546 25.1363 438.976 25.0405 438.296 24.9953ZM442.415 25.5837C441.775 25.654 443.961 25.8208 445.858 25.787C448.818 25.7345 444.151 25.5758 442.415 25.5837ZM687.788 6.3199C687.785 6.32017 687.781 6.32046 687.777 6.32074C687.779 6.32047 687.781 6.3202 687.783 6.31994C687.785 6.31992 687.786 6.31991 687.788 6.3199ZM298.098 25.5555C296.566 25.6152 294.299 25.6065 294.466 25.7015C293.721 25.6828 292.968 25.6645 292.223 25.6458C292.23 25.6744 292.244 25.703 292.251 25.7313C294.493 25.749 296.728 25.7669 298.97 25.785C298.689 25.7086 298.429 25.6319 298.098 25.5555ZM273.674 25.489C270.855 25.4793 273.218 25.6086 272.6 25.671C271.981 25.7334 269.471 25.6826 269.766 25.7722C271.425 25.7757 273.155 25.7792 274.835 25.7824C274.392 25.685 274.083 25.5858 273.668 25.489C273.67 25.489 273.672 25.489 273.674 25.489ZM534.05 25.6844C532.138 25.6564 532.918 25.5578 529.144 25.6733C529.147 25.6733 529.149 25.6733 529.152 25.6733C532.744 25.754 537.367 25.826 541.331 25.7479C538.906 25.6439 537.057 25.7282 534.05 25.6844ZM322.855 25.7056C323.662 25.6275 319.903 25.5622 319.074 25.6348C317.731 25.7523 321.625 25.8243 322.855 25.7056ZM606.55 10.5111C609.438 10.0928 603.921 10.161 598.169 10.631C597.672 10.6718 601.395 10.5198 600.296 10.6343C600.185 10.6458 598.144 10.7654 597.641 10.8298C597.138 10.8943 597.673 10.9394 596.847 11.0228C595.398 11.169 592.109 11.265 591.026 11.4066C590.883 11.4254 592.926 11.4043 593.054 11.4004C595.148 11.3349 597.154 11.0754 597.477 11.0546C599.139 10.9479 598.895 11.0698 599.317 11.069C600.113 11.0674 601.506 10.9346 601.604 10.9321C604.133 10.8705 598.366 11.1978 597.59 11.2841C595.499 11.5165 597.446 11.4936 592.42 11.8609C591.943 11.8958 586.225 12.2406 593.437 11.9174C579.305 13.0347 600.555 11.6222 602.86 11.4258C603.922 11.3351 602.305 11.3325 602.947 11.2472C604.414 11.0523 606.924 10.8796 606.691 10.7462C606.188 10.4663 602.902 10.8717 600.626 10.9591C600.86 10.8772 600.947 10.8061 601.385 10.7131C600.71 10.8434 606.34 10.5421 606.55 10.5117C606.55 10.5115 606.55 10.5113 606.55 10.5111ZM570.755 13.0642C567.571 13.1659 567.808 13.3475 564.89 13.4145C562.333 13.7477 567.397 13.425 567.987 13.3986C570.684 13.2775 570.633 13.4721 573.386 13.2442C572.432 13.1894 571.653 13.1227 570.755 13.0642ZM598.402 11.4474C596.283 11.6769 600.086 11.4417 600.242 11.4511C601.934 11.5487 590.542 12.209 598.402 11.4474ZM422.145 25.2015C421.063 25.1948 421.75 25.2897 420.796 25.3177C419.84 25.346 416.573 25.2648 416.654 25.3239C416.739 25.3831 422.726 25.5366 416.716 25.5698C416.92 25.6031 416.851 25.6278 416.95 25.6579C418.601 25.6587 420.268 25.6602 421.92 25.6611C421.013 25.5654 420.084 25.4648 419.213 25.3724C420.141 25.2963 420.662 25.3939 420.711 25.3939C420.711 25.3938 420.711 25.3937 420.711 25.3936C422.44 25.3859 424.575 25.2164 422.145 25.2015ZM507.325 25.4995C507.648 25.2618 505.097 25.5272 504.05 25.5567C503.003 25.5861 501.564 25.4981 502.105 25.6003C503.798 25.6709 507.29 25.526 507.325 25.4992C507.325 25.4993 507.325 25.4994 507.325 25.4995ZM554.962 16.892C553.075 18.7802 553.424 18.5316 551.018 20.7399C551.149 20.6938 551.281 20.6487 551.411 20.602C553.285 18.8084 553.038 18.8141 555.251 16.7863C555.613 16.454 554.945 17.2789 556.518 15.712C556.003 16.1077 555.475 16.5036 554.962 16.892ZM544.853 25.5602C545.252 25.5591 545.639 25.5502 546 25.5362L546.214 25.5369L546.371 25.3871C547.88 23.8232 548.55 22.8016 546.177 25.1849L546.102 25.2564L546 25.2561C545.626 25.2648 545.196 25.278 544.704 25.2962C543.868 25.3276 542.549 25.5669 544.853 25.5602ZM450.413 25.1897C445.2 25.1763 451.122 25.2513 452.479 25.3228C440.343 25.3799 453.849 25.3032 455.06 25.5408C456.543 25.4732 459.318 25.3184 456.235 25.277C454.949 25.2598 455.418 25.3306 455.341 25.3303C452.973 25.3128 453.259 25.197 450.413 25.1897ZM576.277 12.7137C576.081 12.7292 576.393 12.7905 575.769 12.8448C575.145 12.8991 573.727 12.9299 573.59 12.9877C573.453 13.0457 576.294 12.9098 577.162 12.8203C578.03 12.7305 578.05 12.5738 576.277 12.7137ZM556.857 14.7857C555.309 16.3369 557.385 14.6482 558.325 13.8393L558.029 13.969C558.263 13.9673 558.446 13.9633 558.535 13.9576C561.785 13.748 559.763 13.7644 558.017 13.7721L558.189 13.6968C557.487 14.2963 556.843 14.8444 556.857 14.7857ZM462.518 24.6876C456.235 24.8377 460.831 25.0987 464.767 25.255C465.287 25.2233 465.82 25.1914 466.333 25.16C463.972 25.353 459.833 25.5438 469.041 25.3756C464.001 25.3301 468.221 25.2783 468.253 25.2674C468.809 24.9128 461.343 25.0775 462.524 24.6876C462.522 24.6876 462.52 24.6876 462.518 24.6876ZM584.737 12.2789C587.466 12.1101 594.559 11.6132 591.239 11.6622C589.069 11.8679 586.907 12.0732 584.737 12.2789ZM359.644 24.7083C357.409 24.6199 355.348 24.6215 352.593 24.6273C355.074 24.7559 353.443 24.7707 352.607 24.8022C351.338 24.8496 354.412 24.8457 354.42 24.8543C354.364 24.9765 352.404 24.9955 356.866 24.9926C355.763 25.0351 354.674 25.078 353.571 25.1203C356.972 25.1258 357.773 25.2056 359.93 25.3029C357.836 25.065 360.594 25.214 363.096 25.0956C364.345 25.0363 360.781 24.7535 359.635 24.7083C359.638 24.7083 359.641 24.7083 359.644 24.7083ZM456.024 24.6398C455.378 24.6827 454.786 24.7406 454.16 24.7896C453.479 24.7943 452.795 24.7984 452.114 24.8031C452.029 24.7652 451.959 24.7255 451.861 24.6891C450.962 24.6781 451.312 24.7308 451.045 24.7358C451.045 24.7356 451.045 24.7354 451.045 24.7352C447.216 24.8051 445.648 24.7973 442.648 24.6801C442.648 24.7962 442.648 24.9123 442.648 25.0284C443.322 25.0174 444.003 25.0066 444.678 24.9958C445.036 24.9334 445.396 24.871 445.754 24.8086C446.535 24.843 447.308 24.8771 448.088 24.9116C448.713 24.8891 449.464 24.8655 450.005 24.8437C453.119 25.1682 446.043 24.9477 445.979 25.0825C445.937 25.1691 453.064 25.1653 454.09 25.1055C454.238 25.0967 452.698 24.8551 455.304 24.981C455.712 25.0008 455.855 25.5237 458.667 25.1003C459.067 25.0402 457.668 24.7154 456.024 24.6398ZM430.149 24.4712C434.155 24.8057 419.368 24.452 425.749 24.7272C423.929 24.8809 424.267 24.8789 426.1 25.0153C426.262 25.0275 424.995 25.0698 425.102 25.0751C426.818 25.1504 428.884 25.1105 428.898 25.2473C429.361 25.24 429.798 25.2335 430.261 25.2262C428.33 25.0973 431.401 25.0107 432.589 24.9019C433.13 24.8527 431.887 24.8375 432.342 24.7944C432.51 24.7786 434.247 24.8101 434.318 24.7649C434.466 24.6628 433.375 24.5249 431.526 24.4497C431.526 24.4496 431.526 24.4495 431.526 24.4494C431.063 24.4561 430.612 24.4642 430.149 24.4712ZM515.776 24.7491C516.458 24.9339 519.191 24.9869 513.94 25.0773C514.2 25.1137 514.468 25.1498 514.727 25.1862C515.613 25.183 516.471 25.1798 517.37 25.1769C520.069 24.6322 524.995 25.2469 521.84 24.8606C521.496 24.8186 519.395 24.8655 521.469 24.7515C521.466 24.7514 521.463 24.7513 521.46 24.7512C518.565 24.7862 518.201 24.8517 515.776 24.7491ZM496.398 24.878C489.72 25.267 505.625 25.0951 502.968 24.9918C502.729 24.9825 495.877 25.0661 496.398 24.878ZM548.554 21.9147C546.388 23.9811 546.39 24.2699 546.66 24.1156C546.931 23.9613 548.374 22.4716 548.576 22.2952C549.232 21.7206 547.916 23.0184 548.77 22.2744C549.053 22.0277 552.869 18.474 553.035 18.3022C553.958 17.3481 552.438 18.5649 552.698 18.288C553.547 17.3853 554.821 16.2883 555.017 15.9735C555.439 15.2969 553.321 17.6124 552.941 17.9807C551.796 19.0914 551.82 18.9151 550.942 19.7259C550.064 20.536 549.527 21.1033 548.761 21.8265C548.506 22.0672 548.664 21.8102 548.554 21.9147ZM540.08 24.9827C543.206 24.8238 535.594 24.651 534.691 24.6882C532.034 24.7987 538.583 25.0585 540.08 24.9827ZM440.18 24.9759C443.039 24.8608 436.377 24.7675 434.473 24.8139C434.826 24.8618 439.196 25.0156 440.18 24.9759ZM464.261 24.6882C461.633 24.724 465.119 24.9835 467.312 24.9795C468.597 24.8089 467.387 24.8427 465.954 24.8357C464.522 24.8287 466.312 24.6602 464.261 24.6882ZM577.775 12.0143C577.208 12.0464 568.093 12.7473 573.339 12.4839C573.739 12.4637 580.124 12.0468 580.607 11.9909C581.577 11.8781 579.234 11.9323 577.775 12.0143ZM476.87 24.4362C475.479 24.5838 474.109 24.5818 475.389 24.755C475.39 24.755 475.392 24.755 475.394 24.755C471.873 24.808 471.717 24.4537 470.958 24.4613C468.303 24.4879 470.818 24.7401 469.153 24.8229C473.026 24.745 471.915 24.9151 474.86 24.9259C475.521 24.9282 478.165 24.8267 478.551 24.7634C478.937 24.7001 477.587 24.5103 476.87 24.4362ZM590.66 11.1862C587.578 11.3189 584.773 11.7307 589.046 11.5063C591.131 11.3969 592.543 11.1051 590.66 11.1862ZM286.943 24.6325C287.414 24.6952 287.899 24.7576 288.405 24.8197C287.267 24.8349 286.127 24.8503 284.989 24.8658C285.889 24.8459 286.79 24.8264 287.696 24.8069C285.56 24.785 284.583 24.671 286.937 24.6325C286.939 24.6325 286.941 24.6325 286.943 24.6325ZM210.871 24.5847C209.916 24.5243 208.032 24.7113 208.271 24.7259C210.07 24.8345 212.198 24.6684 210.871 24.5847ZM435.954 24.4082C432.4 24.382 434.844 24.686 437.022 24.7068C435.69 24.6487 437.971 24.423 435.954 24.4082ZM237.624 24.5995C237.943 24.6256 238.265 24.6518 238.622 24.6779C237.498 24.6416 237.303 24.6172 237.624 24.5995ZM576.307 11.8355C575.764 11.8455 571.758 12.0722 571.219 12.1342C570.1 12.2636 573.234 12.2394 575.069 12.075C575.272 12.057 576.848 11.8257 576.299 11.836C576.302 11.8358 576.305 11.8357 576.307 11.8355ZM282.136 24.516C282.142 24.519 282.139 24.5217 282.127 24.5243C282.131 24.5216 282.13 24.5188 282.136 24.516ZM136.239 11.9595C136.261 11.9659 136.272 11.9715 136.269 11.9758C136.261 11.9707 136.244 11.9648 136.239 11.9595ZM550.283 19.7906C549.119 20.5055 547.003 22.7468 548.858 21.1674C548.961 21.0787 550.049 20.0142 550.283 19.7906Z" fill="#308AFF" fill-opacity="0.7"/>
</g>
<g opacity="0.3" filter="url(#filter1_d_55838_307)">
<path d="M36.9175 8.80501C34.2657 8.43008 31.3599 8.03834 28.7024 7.62829C28.3762 7.57797 28.4056 7.53129 28.3149 7.51161C28.0669 7.45765 27.9076 7.49492 27.7255 7.4645C26.8404 7.31685 26.0109 7.18971 25.1424 7.04638C24.2477 6.89877 24.6944 6.80441 24.388 6.7221C23.7893 6.56111 24.2786 6.83727 24.0326 6.84844C23.3359 6.73654 22.6344 6.61398 21.9379 6.49185C22.1114 6.49738 22.2849 6.50331 22.46 6.51049C22.1557 6.46277 21.7236 6.36922 22.2419 6.38935C22.1311 6.35867 22.0282 6.3266 21.9142 6.29583C21.8719 6.36489 21.3311 6.29368 21.2755 6.33026C21.22 6.36688 21.525 6.40022 21.5226 6.40376C21.4947 6.45525 20.26 6.20303 20.171 6.18414C19.9359 6.1341 20.1571 6.07258 19.9543 6.0496C19.6055 6.01002 19.8104 6.22875 19.3754 5.91474C19.1769 5.9682 19.1665 5.92423 18.9304 5.88484C18.8994 5.87969 18.9169 5.92957 18.903 5.92883C18.5396 5.91207 18.8275 5.8651 18.8263 5.86015C18.8051 5.77605 18.4153 5.75641 18.3353 5.7372C17.3317 5.49698 16.5956 5.32625 15.5255 5.15093C15.2941 5.11311 14.5829 5.0444 14.3603 4.99881C14.1408 4.95385 14.2678 4.91357 14.1558 4.86953C13.9504 4.98071 13.771 4.97058 13.3669 4.82028C13.1973 4.89855 13.2288 4.82037 12.9285 4.79796C12.6785 4.77924 12.2298 4.8381 11.9719 4.69646C12.2831 4.75045 12.2578 4.69648 12.6137 4.71693C12.7322 4.72379 13.9535 4.89611 13.8774 4.78046C13.8376 4.72017 13.4259 4.71151 13.4117 4.69941C13.3288 4.6289 13.5648 4.59049 13.7615 4.64386C13.7099 4.64834 13.6481 4.65152 13.5928 4.65547C14.0322 4.79159 13.7624 4.47132 14.0697 4.76142C14.1077 4.79705 14.0869 4.82557 14.1521 4.86697C14.1683 4.85601 14.0877 4.81159 14.1619 4.8163C14.2376 4.82117 14.371 4.9027 14.3996 4.85414C14.442 4.78363 14.1276 4.76889 14.1049 4.76117C14.1045 4.76159 14.1042 4.762 14.1039 4.76242C13.9032 4.69311 14.3349 4.75013 14.3565 4.74597C14.4965 4.71827 14.4107 4.66929 14.6163 4.65925C14.7335 4.65356 15.0224 4.70806 15.1307 4.71628C15.2383 4.72422 15.0776 4.66504 15.1504 4.66767C15.2232 4.67029 15.3086 4.71002 15.3941 4.71321C15.4307 4.71446 15.4345 4.67462 15.4521 4.67572C15.6413 4.68721 15.5069 4.75202 15.6772 4.77123C15.7876 4.78359 16.1674 4.75953 15.9164 4.70034C16.0398 4.70984 16.1598 4.72103 16.2822 4.73216C16.2072 4.70943 16.1291 4.69011 16.0563 4.66558C16.2824 4.71712 16.3956 4.66416 16.5397 4.67961C16.6838 4.69507 16.8008 4.79473 16.9643 4.77762C17.3131 4.74137 16.4736 4.66122 16.3722 4.63136C16.3327 4.61967 16.4967 4.57813 16.5209 4.57972C16.628 4.58689 16.7469 4.65034 16.8288 4.65997C17.1224 4.69413 17.3101 4.65962 17.5906 4.68731C18.5457 4.78169 19.728 4.91647 20.6291 5.03178C20.9647 5.07477 21.1566 5.17113 21.3072 5.19069C21.6595 5.23642 21.711 5.18369 22.0181 5.22437C22.4753 5.28474 23.1111 5.42802 23.4906 5.49355C23.7533 5.53885 24.0003 5.51598 24.0691 5.5244C25.0256 5.64018 26.1854 5.80718 26.9757 5.91937C27.3474 5.97212 27.5147 6.06137 27.5917 6.07045C27.9227 6.10961 27.8421 6.04222 28.1088 6.08596C28.2528 6.10954 28.2723 6.16596 28.2914 6.17077C28.4592 6.21241 28.5029 6.14862 28.636 6.16535C29.4018 6.2615 30.1312 6.41154 30.8867 6.52619C30.9416 6.53455 30.9323 6.56425 30.9681 6.56777C31.1218 6.58212 31.0577 6.5241 31.2177 6.54341C31.5506 6.58336 31.8901 6.63994 32.241 6.69625C32.2758 6.70183 32.2858 6.74315 32.3656 6.75455C32.4454 6.76596 32.5112 6.73755 32.6362 6.75752C32.9629 6.80966 33.2796 6.90014 33.626 6.9521C33.6834 6.96065 33.7612 6.92372 33.8472 6.93653C34.117 6.97666 34.5107 7.07652 34.7419 7.11114C35.5045 7.22503 36.2126 7.29884 36.9317 7.40122C37.1006 7.42537 37.2441 7.49038 37.3319 7.50398C37.5298 7.53453 37.3861 7.47195 37.5869 7.50046C39.2273 7.73374 40.8711 7.9877 42.5311 8.22148C42.861 8.26797 43.2286 8.30904 43.5927 8.35145L43.5765 8.34935C43.9329 8.38193 44.286 8.41588 44.5975 8.45844C44.8597 8.4944 44.9006 8.55718 45.0864 8.57956C45.4178 8.61924 45.4865 8.55301 45.837 8.58684C46.1167 8.61394 46.4279 8.72473 46.7188 8.75437C47.0096 8.78401 47.1519 8.72869 47.4864 8.75941C47.7619 8.78478 48.1416 8.86215 48.4413 8.89212C51.1873 9.16656 53.8893 9.45484 56.64 9.83483C57.6106 9.96893 58.6913 10.0857 59.6885 10.2739C59.7822 10.2916 59.6296 10.3432 59.9341 10.3644C60.0977 10.3757 60.3318 10.3433 60.7081 10.3846C62.9457 10.6302 65.3154 11.0373 67.5914 11.2797C71.0007 11.6425 74.5869 11.5693 77.4617 12.6321C77.6027 12.6842 77.5037 12.847 77.411 12.8856C77.3344 12.8412 77.2647 12.7909 77.1849 12.7416C77.0533 12.944 77.0786 12.8902 76.6867 12.8245C76.4455 12.784 76.6285 12.8987 76.4961 12.9096C76.3244 12.9236 75.5247 12.9371 75.6928 12.8126C75.6411 12.8315 75.5933 12.8499 75.5429 12.8684C74.9704 12.8229 74.4124 12.7934 73.8502 12.7687C73.753 12.7645 73.7434 12.8086 73.6431 12.804C73.3736 12.7921 73.165 12.7378 72.8892 12.7099C72.7393 12.6948 72.7125 12.7439 72.5171 12.7176C72.3218 12.6912 72.3342 12.6221 72.0583 12.6664C72.222 12.7742 71.4535 12.6195 71.177 12.5925C71.1368 12.5884 70.7992 12.6283 70.6257 12.5988C70.4515 12.5693 70.1915 12.4878 69.9173 12.4845C69.7887 12.4829 69.7044 12.535 69.567 12.5223C69.4704 12.5134 69.361 12.4455 69.2393 12.4288C69.1176 12.4122 68.8485 12.4258 68.8001 12.4209C68.6252 12.4033 68.8222 12.3877 68.7031 12.3718C68.1279 12.2953 67.4608 12.196 66.8897 12.1549C66.8195 12.1498 66.9108 12.2062 66.9013 12.2066C66.4207 12.2061 66.6807 12.1772 66.5574 12.1218C66.4379 12.0682 65.5279 11.9827 65.512 12.0602C65.4956 11.9589 65.2851 12.01 65.2323 12.0068C65.0271 11.9939 65.0771 11.9138 64.8763 11.9167C64.8026 11.9178 64.9371 11.9917 64.8594 11.9809C64.6672 11.954 64.5046 11.8415 64.2491 11.8021C64.1875 11.7926 64.1625 11.8312 64.0526 11.8169C63.9425 11.8025 63.4863 11.698 63.6893 11.8096C63.4172 11.7073 63.3563 11.7387 63.0306 11.6984C62.9481 11.6881 62.8495 11.6095 62.6714 11.6093C62.6111 11.6093 62.6054 11.6732 62.5159 11.6632C62.3111 11.6405 62.1262 11.5519 61.8669 11.5187C61.3819 11.4566 60.8596 11.4421 60.3554 11.3661C60.2184 11.3454 60.2603 11.2853 60.0603 11.2606C60.0309 11.2571 59.7834 11.2842 59.6458 11.2627C59.5629 11.2498 59.1363 11.1601 59.0497 11.1467C58.9065 11.1248 58.8736 11.1837 58.7962 11.1624C58.5726 11.1006 58.766 11.0309 58.4773 11.1235C58.3953 11.0437 58.2344 11.0318 58.1931 10.9406C58.0889 11.0229 57.9786 10.9191 57.7941 10.929C57.6096 10.9391 57.4401 11.1023 57.4191 10.9027C57.3319 10.9164 56.9673 10.9144 56.9063 10.9102C56.7264 10.8975 56.8284 10.855 56.6925 10.8464C56.6686 10.8448 56.6892 10.8845 56.5371 10.8629C56.4373 10.8487 55.7041 10.7602 55.6609 10.75C55.1679 10.6336 55.9375 10.7455 56.0502 10.7184C56.068 10.7311 56.0857 10.7439 56.1048 10.7566C56.3236 10.7999 56.2077 10.702 56.1098 10.671C56.012 10.6399 55.8206 10.6549 55.7406 10.6179C55.7007 10.5993 55.7382 10.5027 55.8621 10.5295C55.7316 10.483 55.9186 10.4721 55.8689 10.4371C55.8143 10.3986 55.2126 10.3179 55.2029 10.3724C55.3153 10.3876 55.4557 10.4022 55.5693 10.4179C55.707 10.5308 55.2163 10.8034 54.8168 10.6244C54.527 10.4948 55.0318 10.4783 54.3106 10.4736C54.4196 10.4903 54.5112 10.5101 54.6102 10.5258C54.6124 10.5986 54.4603 10.5009 54.3744 10.5139C54.3331 10.5203 54.5735 10.6 54.3576 10.5917C54.1857 10.4677 54.0321 10.554 53.7235 10.5189C53.8114 10.5108 53.8993 10.5027 53.9872 10.4945C53.4748 10.359 54.6882 10.477 53.6796 10.3162C53.802 10.3273 53.9232 10.3424 54.0464 10.3518C53.9914 10.3073 54.0994 10.2082 54.049 10.1787C53.9167 10.1012 53.7059 10.1137 53.5364 10.0884C53.4623 10.0773 53.5119 10.053 53.5057 10.0521C53.4041 10.0368 53.4215 10.0831 53.3317 10.0753C53.2187 10.0656 52.8985 9.9849 52.8452 9.98353C52.7074 9.97982 52.9244 10.0926 52.9105 10.0975C52.8186 10.1289 52.645 10.0735 52.648 10.1291C53.0798 10.1419 54.3058 10.3349 53.1809 10.294C53.4777 10.4183 53.3747 10.5293 52.9319 10.4869C52.5656 10.4519 52.8071 10.431 52.6231 10.3551C52.5993 10.3455 52.113 10.2623 52.0835 10.2972C52.1133 10.2124 51.9631 10.1165 52.0806 10.0391C52.0978 10.0278 52.298 10.0566 52.2364 9.97606C52.2057 9.93563 52.1144 9.84477 52.1361 9.80045C52.091 9.82773 52.0436 9.85881 51.9977 9.88741C51.6957 9.86139 51.657 9.82173 51.4995 9.74242C51.504 9.76833 51.6437 9.89137 51.4166 9.83223C51.405 9.82893 51.3992 9.78998 51.2841 9.75746C51.0514 9.69203 51.0033 9.67454 51.1983 9.58512C50.6998 9.59057 50.6086 9.4546 50.1008 9.43148C50.1841 9.58573 50.3653 9.57128 50.8296 9.59808C50.8457 9.63432 50.8511 9.66896 50.8677 9.70562C50.263 9.55661 50.5654 9.60012 50.2096 9.62801C50.1225 9.63485 49.6709 9.56344 49.8111 9.67718C49.8441 9.70395 50.1263 9.73451 50.0898 9.76629C50.0828 9.77233 49.7381 9.74926 49.7089 9.73651C49.3431 9.57843 50.03 9.57906 48.981 9.49757C48.9521 9.4954 48.9371 9.53569 48.8802 9.53484C48.7732 9.53318 48.7775 9.48497 48.6818 9.48496C48.586 9.48496 48.4475 9.53419 48.3126 9.45774C48.0657 9.31841 48.6856 9.3279 48.9516 9.41769C49.079 9.28856 47.1304 9.05614 47.0082 9.0541C46.4747 9.04506 47.3558 9.1177 47.3964 9.16245C47.4132 9.18134 47.379 9.3917 47.6172 9.28061C47.6876 9.24768 47.4194 9.1618 47.5858 9.15865C47.7524 9.15552 47.6801 9.21014 47.6915 9.21588C47.7305 9.23557 47.9076 9.233 47.9292 9.24449C48.2613 9.4194 48.2056 9.61811 47.7796 9.26478C47.5708 9.30875 48.0191 9.47074 47.7641 9.48724C47.4541 9.50731 47.244 9.38483 47.2063 9.37599C46.7551 9.27078 47.2658 9.47357 46.7126 9.36289C46.4046 9.30129 47.189 9.32396 46.4778 9.24963C45.8825 9.18752 46.1977 9.27429 46.1415 9.3806C46.1282 9.40546 45.7988 9.39911 46.2436 9.43981C46.2595 9.41227 46.2877 9.37681 46.319 9.35336C46.4253 9.38735 46.5895 9.55391 46.6466 9.56577C46.926 9.62312 46.9212 9.54614 47.0772 9.65449C46.9697 9.5434 47.1563 9.62467 47.2313 9.6127C47.5096 9.56884 47.1596 9.49917 47.7531 9.66745C47.6796 9.61265 47.6135 9.55958 47.5425 9.50524C47.6153 9.51221 47.6881 9.51915 47.7608 9.52612C47.8572 9.63913 48.2442 9.67165 47.8833 9.73154C48.2997 9.80959 48.4719 9.8077 48.5731 9.74051C48.5923 9.72768 48.6561 9.72915 48.7304 9.73643C48.7189 9.71285 48.709 9.64297 48.7216 9.63603C48.8347 9.57522 48.9818 9.72056 48.9209 9.76226C48.9725 9.77067 49.0132 9.7782 49.0275 9.78107C49.1185 9.79936 48.9333 9.82177 49.006 9.84547C49.03 9.85321 49.2898 9.87417 49.2928 9.89248C49.3106 10.0097 48.8944 9.87769 49.7417 10.0443C49.7745 9.94334 49.3747 9.91934 49.4896 9.82152C49.613 9.71641 49.8177 9.90095 49.8835 9.76194C49.8989 9.78787 49.9046 9.80866 49.917 9.8376C50.2704 9.81523 50.2608 9.93633 50.3633 9.97538C50.5624 10.0515 51.5069 10.1547 50.672 9.95057C50.7971 9.95472 50.9241 9.96477 51.0485 9.97007C51.0512 10.1895 50.9863 10.0947 51.5761 10.1975C51.706 10.2202 51.7374 10.3203 51.8789 10.2224C51.8484 10.3311 52.243 10.3097 52.2775 10.3274C52.4987 10.4421 51.6249 10.4626 51.5377 10.2538C51.3837 10.313 51.3961 10.2123 51.2325 10.2066C50.9962 10.1984 50.9614 10.2142 50.6924 10.1071C50.4066 10.1797 51.7573 10.2791 50.9264 10.3223C50.0951 10.3655 45.3413 9.8848 44.232 9.77544C43.9427 9.7469 43.6731 9.72042 43.4182 9.69533L43.401 9.69309C41.8894 9.50639 40.8956 9.382 39.3593 9.15709C39.1823 9.13127 37.8438 8.95028 38.139 8.86927C38.1813 8.85765 38.763 8.8939 38.2833 8.72869C38.3756 8.79896 38.0804 8.79386 38.0552 8.79627C37.478 8.85025 37.7964 8.92916 36.9175 8.80501ZM34.4663 7.35634C35.6092 7.54771 34.7782 7.34666 35.0425 7.19847C34.8954 7.17692 34.7488 7.15547 34.6017 7.13393C34.6387 7.15088 34.6752 7.16773 34.7123 7.18469C34.7124 7.18471 34.7126 7.18473 34.7128 7.18476C34.6308 7.24197 34.5483 7.29913 34.4663 7.35634ZM15.7357 4.55606C15.7839 4.53845 15.8315 4.52073 15.8834 4.50418C16.0338 4.53327 16.1837 4.56215 16.3342 4.59124C16.3138 4.60494 16.294 4.61892 16.2735 4.63261C16.0944 4.60631 15.9158 4.58003 15.7357 4.55606ZM49.1156 9.41016C49.3229 9.50237 49.3176 9.38071 49.5971 9.46874C49.5724 9.37652 49.5436 9.28577 49.517 9.19419C49.2978 9.18163 49.2444 9.20931 49.0105 9.15996C49.0347 9.19152 49.0595 9.22331 49.0831 9.25497C49.1232 9.25352 49.1659 9.25154 49.2046 9.25064C49.256 9.33701 48.8768 9.30439 49.1148 9.41025C49.1151 9.41022 49.1153 9.41019 49.1156 9.41016ZM51.3252 9.63416C51.4396 9.65925 51.8931 9.75632 51.96 9.72718C52.1866 9.62841 50.8836 9.55472 51.8501 9.5569C51.8478 9.53903 51.8541 9.52253 51.8562 9.50534C51.683 9.4788 51.5102 9.45316 51.3356 9.42769C51.3369 9.49725 51.3227 9.56411 51.3252 9.63416ZM38.6154 7.9413C38.7914 7.97613 39.645 8.03888 39.3806 7.92141C39.3028 7.88696 38.9094 7.94478 38.7667 7.91944C38.6742 7.90304 38.7871 7.85666 38.6005 7.85298C38.6048 7.88114 38.6055 7.9118 38.6159 7.94119C38.6158 7.94123 38.6156 7.94126 38.6154 7.9413ZM38.232 8.25026C38.4169 8.26554 38.6047 8.27826 38.7909 8.29302C38.6662 8.20399 38.3948 8.21096 38.3932 8.11052C38.4448 8.11029 38.4957 8.11002 38.5473 8.10978C38.5829 8.13678 38.6179 8.16371 38.6528 8.19062C38.8189 8.15989 38.7267 8.11968 39.0195 8.17724C38.8623 8.00331 38.8406 7.9189 38.314 7.99692C38.4209 7.93001 38.3686 7.65474 38.0618 7.80228C38.0044 7.82962 38.2199 7.88413 38.2216 7.89003C38.2454 7.96376 38.1177 7.9904 38.1445 8.06066C38.1565 8.09242 38.29 8.11104 38.3042 8.15477C38.3105 8.17603 38.1755 8.21479 38.232 8.25026ZM37.9165 7.84857C37.9792 7.81493 37.7994 7.68817 37.6281 7.6842C37.3611 7.67787 37.7617 7.83124 37.9165 7.84857ZM15.7347 4.556C15.735 4.55602 15.7354 4.55604 15.7357 4.55606C15.7355 4.55612 15.7353 4.55619 15.7352 4.55626C15.735 4.55617 15.7348 4.55609 15.7347 4.556ZM50.7341 9.51548C50.8746 9.49592 51.0759 9.52486 51.0676 9.4665C51.1326 9.48543 51.1984 9.50426 51.2634 9.52318C51.2648 9.50609 51.2656 9.48889 51.2669 9.47197C51.0686 9.43789 50.8709 9.40385 50.6726 9.3696C50.6923 9.41807 50.71 9.46649 50.7341 9.51548ZM52.9036 9.81091C53.1538 9.84615 52.9525 9.74439 53.0119 9.71368C53.0714 9.68297 53.2913 9.73952 53.2713 9.68308C53.1239 9.66362 52.9701 9.6434 52.8208 9.6239C52.8534 9.68658 52.874 9.74893 52.9041 9.81097C52.9039 9.81095 52.9038 9.81093 52.9036 9.81091ZM29.7944 6.62723C29.9616 6.66809 29.884 6.71678 30.2287 6.69603C30.2284 6.69599 30.2282 6.69596 30.2279 6.69592C29.9161 6.60243 29.512 6.50107 29.1537 6.49723C29.36 6.58976 29.5312 6.56313 29.7944 6.62723ZM48.5409 9.16675C48.4636 9.20486 48.7936 9.28312 48.8725 9.24854C49.0002 9.19256 48.6587 9.1089 48.5409 9.16675ZM22.8846 6.05963C22.6062 6.16566 23.0722 6.3959 23.594 6.39976C23.6392 6.40003 23.3152 6.30736 23.417 6.29346C23.4273 6.29213 23.6083 6.32146 23.656 6.308C23.7038 6.29449 23.6632 6.24152 23.7396 6.23263C23.8736 6.21717 24.1564 6.32168 24.2594 6.29098C24.273 6.28684 24.1009 6.19915 24.0898 6.19518C23.9093 6.13122 23.7187 6.18647 23.6899 6.1829C23.5417 6.16456 23.5731 6.10438 23.5378 6.08413C23.4713 6.04605 23.3433 6.05633 23.3348 6.05301C23.1184 5.96538 23.6287 6.05451 23.7012 6.04154C23.8965 6.00651 23.732 5.92452 24.1842 5.95359C24.2271 5.95637 24.7348 6.03271 24.1044 5.87024C25.3833 5.902 23.4845 5.69583 23.2747 5.69908C23.1779 5.70067 23.3125 5.78153 23.2513 5.80052C23.1114 5.84399 22.8866 5.82306 22.894 5.91355C22.9108 6.10397 23.2212 6.02512 23.4188 6.08499C23.3919 6.12197 23.3782 6.15984 23.3334 6.19337C23.4014 6.14935 22.9049 6.05155 22.8847 6.05926C22.8847 6.05939 22.8846 6.05951 22.8846 6.05963ZM26.0986 6.30393C26.3732 6.39989 26.3698 6.28072 26.6191 6.38421C26.8623 6.31237 26.4111 6.25507 26.3595 6.24169C26.1238 6.18116 26.1455 6.06837 25.8956 6.06832C25.9701 6.14754 26.029 6.22525 26.0986 6.30393ZM23.6482 5.90495C23.8455 5.87305 23.5073 5.82574 23.4952 5.81252C23.3629 5.67173 24.3721 5.83959 23.6482 5.90495ZM39.6825 8.33253C39.778 8.35023 39.7251 8.28514 39.8121 8.28058C39.8993 8.27589 40.1823 8.36556 40.1801 8.32944C40.1776 8.29321 39.6594 8.12613 40.1955 8.18256C40.1802 8.16024 40.1884 8.14639 40.1822 8.12731C40.0357 8.10585 39.888 8.08386 39.7415 8.0624C39.8138 8.1307 39.8877 8.20224 39.9572 8.26819C39.8684 8.30164 39.8304 8.23704 39.8261 8.23642C39.8261 8.23648 39.8261 8.23654 39.826 8.2366C39.672 8.21924 39.4682 8.29288 39.6825 8.33253ZM32.1499 7.07582C32.101 7.2129 32.3499 7.08757 32.4453 7.08335C32.5407 7.07919 32.6609 7.14969 32.6217 7.08209C32.4773 7.0187 32.1553 7.06051 32.1499 7.07601C32.1499 7.07595 32.1499 7.07588 32.1499 7.07582ZM27.6335 6.52292C27.8752 6.52248 27.8428 6.48041 28.1266 6.56367C28.1202 6.52795 28.114 6.49147 28.1075 6.45627C27.8775 6.4227 27.8795 6.52407 27.619 6.44622C27.5763 6.4334 27.681 6.36763 27.4804 6.36492C27.5317 6.41534 27.5831 6.47051 27.6335 6.52292ZM28.8252 6.56406C28.5525 6.53043 28.2974 6.77574 28.816 6.72274C28.8929 6.71473 29.0303 6.58929 28.8252 6.56406ZM37.1734 7.9812C37.6348 8.05524 37.1157 7.93561 37.0013 7.87598C38.083 7.99587 36.8781 7.87023 36.7908 7.71375C36.6535 7.73514 36.3941 7.79187 36.6642 7.85556C36.7768 7.88209 36.7412 7.83411 36.748 7.83526C36.9567 7.87568 36.9214 7.94079 37.1734 7.9812ZM25.6067 6.2406C25.6245 6.24102 25.604 6.18944 25.6608 6.18785C25.7178 6.18633 25.8388 6.23766 25.8554 6.21019C25.8721 6.18253 25.623 6.12366 25.5425 6.13405C25.4621 6.14465 25.4463 6.23642 25.6067 6.2406ZM27.365 6.61164C27.601 6.61035 27.2482 6.38076 27.1978 6.3744C26.7549 6.3205 27.386 6.55791 27.365 6.61164ZM36.0566 8.12603C36.6269 8.11648 36.2412 7.9032 35.9052 7.76046C35.8564 7.77274 35.8064 7.78488 35.7582 7.79708C35.9842 7.71234 36.3676 7.65146 35.5363 7.6347C35.9796 7.72556 35.6008 7.70288 35.597 7.70893C35.5176 7.91253 36.194 7.90934 36.0561 8.12596C36.0563 8.12598 36.0565 8.12601 36.0566 8.12603ZM24.8623 6.08302C24.6196 6.04906 23.9835 5.99532 24.2647 6.12916C24.4641 6.11382 24.6629 6.09836 24.8623 6.08302ZM45.1962 9.37577C45.3889 9.45183 45.5725 9.47251 45.8181 9.49789C45.6063 9.39528 45.7525 9.40355 45.8291 9.39354C45.9454 9.37858 45.6715 9.34871 45.6714 9.34346C45.6849 9.27124 45.8607 9.28046 45.4633 9.23546C45.5645 9.22166 45.6644 9.2075 45.7656 9.19386C45.4632 9.15494 45.3975 9.09905 45.2123 9.01843C45.3821 9.18216 45.1471 9.0645 44.916 9.10885C44.8007 9.13109 45.0981 9.33693 45.1969 9.37586C45.1967 9.37583 45.1964 9.3758 45.1962 9.37577ZM36.6288 8.23672C36.6898 8.21945 36.7472 8.19251 36.8069 8.17134C36.8678 8.17721 36.9287 8.18344 36.9896 8.18931C36.9939 8.21289 36.9968 8.23733 37.0024 8.26022C37.0812 8.27816 37.0546 8.24238 37.0787 8.24282C37.0787 8.24294 37.0787 8.24306 37.0787 8.24318C37.4244 8.25017 37.5628 8.27472 37.8191 8.38234C37.8289 8.31337 37.8388 8.2444 37.8486 8.17543C37.7879 8.17346 37.7265 8.17124 37.6658 8.16909C37.6287 8.20161 37.5914 8.23413 37.5543 8.26665C37.488 8.23632 37.4224 8.20623 37.356 8.1759C37.2987 8.1813 37.23 8.1858 37.1802 8.19193C36.9315 7.95968 37.5406 8.18034 37.5576 8.10111C37.5687 8.0502 36.9361 7.96212 36.8399 7.98462C36.8261 7.98795 36.9422 8.15102 36.7216 8.04318C36.6871 8.02624 36.7188 7.71385 36.4334 7.92969C36.3928 7.96029 36.4893 8.17096 36.6288 8.23672ZM38.9104 8.66485C38.5833 8.41539 39.8653 8.8129 39.3225 8.56854C39.497 8.50034 39.4669 8.49724 39.3158 8.39297C39.3025 8.38366 39.4185 8.37464 39.4094 8.37009C39.2636 8.30366 39.0769 8.30117 39.0872 8.21975C39.0455 8.2182 39.0062 8.21652 38.9645 8.21497C39.1249 8.316 38.845 8.32852 38.7304 8.37806C38.6782 8.40047 38.7873 8.42525 38.7432 8.4451C38.7269 8.45231 38.5756 8.41163 38.5654 8.43754C38.5436 8.49629 38.6287 8.59205 38.7863 8.66017C38.7863 8.66023 38.7863 8.66029 38.7863 8.66035C38.828 8.66224 38.8687 8.66313 38.9104 8.66485ZM31.3364 7.41444C31.2916 7.29598 31.0536 7.2299 31.5271 7.24276C31.5072 7.21783 31.4865 7.19299 31.4665 7.16807C31.3877 7.15875 31.3113 7.14977 31.2312 7.1401C30.9455 7.42942 30.5606 7.00186 30.8078 7.27132C30.8348 7.30063 31.0251 7.29938 30.8315 7.34083C30.8317 7.34092 30.8319 7.34102 30.8322 7.34112C31.092 7.35702 31.1299 7.32274 31.3364 7.41444ZM33.0667 7.58349C33.6922 7.43705 32.2665 7.3376 32.4934 7.43259C32.5139 7.44117 33.1289 7.47835 33.0667 7.58349ZM28.2838 7.10543C28.5489 7.14736 28.5843 7.0252 28.5639 6.97648C28.5435 6.92762 28.3531 6.94685 28.3304 6.93637C28.2564 6.90193 28.4226 6.90992 28.3268 6.86353C28.295 6.84837 27.8387 6.73783 27.8168 6.74017C27.6948 6.75318 27.8522 6.88063 27.8168 6.8876C27.7016 6.91053 27.5602 6.83573 27.5205 6.88587C27.4353 6.99279 27.7306 6.90996 27.7778 6.91468C27.9202 6.92936 27.8984 6.99329 28.0026 7.0216C28.1067 7.04988 28.1791 7.03726 28.2719 7.05527C28.3028 7.06127 28.2704 7.10309 28.2838 7.10543ZM29.1997 6.96761C28.9088 7.02236 29.5697 7.2215 29.6529 7.21085C29.8981 7.17888 29.339 6.94156 29.1997 6.96761ZM38.0632 8.23789C37.7997 8.27006 38.3829 8.40988 38.5558 8.40648C38.5285 8.37357 38.1539 8.22681 38.0632 8.23789ZM35.902 8.10358C36.1383 8.11559 35.851 7.91727 35.6561 7.89189C35.5276 7.97689 35.6378 7.97215 35.7644 7.99448C35.8909 8.01683 35.7177 8.09418 35.902 8.10358ZM25.4188 6.58119C25.4689 6.58999 26.292 6.62212 25.8309 6.52076C25.7957 6.51308 25.2259 6.44672 25.1806 6.45616C25.0896 6.47532 25.2898 6.55816 25.4188 6.58119ZM34.7619 8.09339C34.8979 8.0234 35.0192 8.04193 34.9204 7.92284C34.9202 7.92281 34.9201 7.92279 34.9199 7.92276C35.2368 7.93589 35.2206 8.14835 35.2886 8.15346C35.5264 8.17132 35.3246 7.98963 35.4794 7.96154C35.1292 7.9587 35.2422 7.87177 34.9818 7.82803C34.9234 7.81827 34.6802 7.84507 34.6405 7.87776C34.6009 7.91048 34.7046 8.0403 34.7619 8.09339ZM24.27 6.43936C24.539 6.51205 24.8099 6.40584 24.4334 6.32907C24.2498 6.29152 24.1058 6.39505 24.27 6.43936ZM51.6624 10.1823C51.6248 10.14 51.586 10.0977 51.5454 10.0554C51.6477 10.0583 51.7502 10.061 51.8526 10.0638C51.7712 10.0661 51.6896 10.0683 51.6075 10.0705C51.7962 10.1059 51.8752 10.1841 51.6629 10.1824C51.6627 10.1824 51.6625 10.1823 51.6624 10.1823ZM58.4306 11.0074C58.5114 11.0534 58.6922 10.9617 58.6719 10.9506C58.5194 10.867 58.3183 10.9437 58.4306 11.0074ZM38.3899 8.6287C38.703 8.68927 38.512 8.47777 38.3205 8.43779C38.4338 8.4892 38.2123 8.5943 38.3899 8.6287ZM56.0502 10.7184C56.0236 10.6995 55.9968 10.6806 55.9669 10.6613C56.0644 10.6947 56.08 10.7113 56.0502 10.7184ZM25.525 6.75904C25.5712 6.77977 25.9256 6.84207 25.9761 6.8318C26.081 6.81003 25.8177 6.6707 25.6499 6.67801C25.6313 6.67872 25.4791 6.73834 25.5258 6.75915C25.5255 6.75911 25.5253 6.75907 25.525 6.75904ZM52.0821 10.302C52.0818 10.3002 52.0823 10.2986 52.0835 10.2972C52.0829 10.2988 52.0828 10.3005 52.0821 10.302ZM65.5137 12.0688C65.5121 12.0658 65.5114 12.0629 65.512 12.0602C65.5124 12.0629 65.5136 12.0659 65.5137 12.0688ZM28.0141 7.271C28.108 7.45993 28.3942 7.40747 28.1906 7.29159C28.1791 7.2854 28.0427 7.27544 28.0141 7.271Z" fill="#5EA4FF" fill-opacity="0.7"/>
</g>
<g opacity="0.3" filter="url(#filter2_d_55838_307)">
<path d="M356.161 26.7379C352.329 26.7417 348.135 26.7649 344.288 26.7348C343.816 26.7311 343.848 26.6807 343.716 26.6741C343.353 26.6557 343.135 26.7151 342.871 26.7108C341.588 26.6898 340.387 26.6812 339.128 26.6622C337.831 26.6426 338.445 26.486 337.994 26.4478C337.114 26.3731 337.863 26.5773 337.517 26.6232C336.507 26.6109 335.489 26.5888 334.478 26.5664C334.724 26.5473 334.971 26.5287 335.221 26.511C334.78 26.5068 334.149 26.4753 334.887 26.4219C334.724 26.4072 334.572 26.39 334.404 26.3757C334.358 26.4501 333.578 26.456 333.507 26.5001C333.436 26.5442 333.874 26.5341 333.872 26.5379C333.843 26.5929 332.043 26.5178 331.913 26.5117C331.57 26.4954 331.871 26.4032 331.579 26.4091C331.077 26.4193 331.411 26.6068 330.732 26.3575C330.461 26.4385 330.438 26.3964 330.096 26.3908C330.05 26.3901 330.085 26.437 330.066 26.4382C329.547 26.473 329.946 26.3858 329.943 26.3811C329.896 26.3008 329.34 26.3365 329.223 26.3288C327.753 26.2329 326.676 26.168 325.125 26.1458C324.789 26.1411 323.768 26.1736 323.444 26.16C323.124 26.1465 323.295 26.0887 323.128 26.0609C322.86 26.2001 322.603 26.2154 322.001 26.1237C321.776 26.2252 321.805 26.1434 321.375 26.1637C321.017 26.1805 320.394 26.3022 320 26.1985C320.452 26.2079 320.405 26.1581 320.913 26.128C321.082 26.118 322.847 26.1159 322.716 26.0121C322.647 25.9581 322.062 26.0077 322.04 25.9978C321.908 25.9397 322.234 25.8683 322.524 25.8933C322.452 25.905 322.365 25.9169 322.287 25.9286C322.937 26.0013 322.49 25.7224 322.984 25.9661C323.045 25.996 323.022 26.0272 323.122 26.0589C323.143 26.0458 323.02 26.0132 323.126 26.0074C323.234 26.0015 323.439 26.0633 323.47 26.0112C323.516 25.9354 323.068 25.9653 323.034 25.9609C323.034 25.9613 323.033 25.9618 323.033 25.9622C322.735 25.922 323.357 25.9174 323.387 25.9102C323.58 25.863 323.448 25.8267 323.738 25.7877C323.902 25.7654 324.323 25.7785 324.478 25.7714C324.632 25.764 324.392 25.7282 324.496 25.7205C324.599 25.7128 324.728 25.74 324.85 25.7311C324.902 25.7271 324.899 25.6872 324.925 25.6858C325.195 25.6704 325.018 25.7535 325.263 25.7485C325.422 25.7451 325.955 25.6676 325.587 25.6445C325.764 25.6364 325.936 25.6305 326.112 25.6242C326.001 25.6123 325.886 25.6043 325.778 25.5903C326.109 25.6093 326.259 25.5409 326.466 25.5358C326.673 25.5307 326.859 25.6128 327.087 25.5728C327.574 25.4876 326.368 25.5269 326.219 25.5117C326.16 25.5057 326.384 25.4414 326.419 25.4396C326.572 25.4315 326.753 25.4775 326.871 25.4755C327.294 25.4678 327.553 25.4071 327.956 25.3948C329.327 25.3532 331.029 25.3194 332.329 25.3061C332.813 25.3012 333.104 25.3694 333.321 25.3675C333.829 25.363 333.892 25.3035 334.335 25.3003C334.995 25.2954 335.924 25.3473 336.475 25.3585C336.856 25.3662 337.201 25.3087 337.3 25.3073C338.678 25.2866 340.355 25.2879 341.497 25.2872C342.034 25.2869 342.289 25.3516 342.4 25.3497C342.876 25.3416 342.749 25.2863 343.135 25.2919C343.344 25.2949 343.383 25.348 343.411 25.35C343.657 25.3675 343.706 25.2982 343.898 25.2959C345.002 25.2828 346.065 25.3282 347.159 25.3348C347.238 25.3354 347.231 25.3661 347.282 25.3645C347.503 25.357 347.4 25.3086 347.631 25.3051C348.11 25.2976 348.603 25.3055 349.111 25.3117C349.161 25.3123 349.184 25.3518 349.299 25.3518C349.414 25.3518 349.502 25.3143 349.683 25.3164C350.156 25.3219 350.623 25.3666 351.124 25.3691C351.207 25.3694 351.31 25.3219 351.434 25.3224C351.825 25.324 352.402 25.3671 352.737 25.3687C353.84 25.3736 354.858 25.3465 355.897 25.3462C356.141 25.3462 356.357 25.3903 356.484 25.3913C356.771 25.3936 356.555 25.3519 356.845 25.3518C357.396 25.3515 357.948 25.3524 358.5 25.3537C360.323 25.3583 362.152 25.3689 363.993 25.3663C364.935 25.3651 366.081 25.322 366.992 25.3339C367.37 25.339 367.439 25.3966 367.706 25.3971C368.184 25.3978 368.271 25.324 368.774 25.3166C369.176 25.3108 369.637 25.3845 370.055 25.38C370.473 25.3754 370.666 25.3039 371.147 25.2953C371.542 25.2883 372.095 25.3208 372.525 25.3155C376.473 25.2672 380.36 25.2378 384.332 25.2938C385.734 25.3136 387.289 25.3033 388.737 25.3737C388.873 25.3803 388.665 25.4494 389.101 25.4349C389.335 25.427 389.663 25.3675 390.204 25.3645C393.425 25.347 396.859 25.4744 400.134 25.4492C405.039 25.4112 410.122 24.9194 414.384 25.6391C414.593 25.6744 414.48 25.8476 414.354 25.8968C414.238 25.8616 414.131 25.8199 414.009 25.7801C413.856 25.9965 413.883 25.9402 413.315 25.9208C412.966 25.9087 413.245 26.0013 413.058 26.0275C412.817 26.0615 411.683 26.1684 411.901 26.0251C411.831 26.0499 411.766 26.0737 411.697 26.098C410.876 26.1197 410.079 26.1556 409.276 26.1967C409.137 26.2039 409.13 26.2489 408.987 26.256C408.602 26.2756 408.297 26.2461 407.9 26.2506C407.685 26.2531 407.655 26.305 407.373 26.3017C407.091 26.2984 407.097 26.2282 406.712 26.3045C406.963 26.3925 405.845 26.3286 405.448 26.334C405.39 26.3347 404.917 26.4138 404.666 26.4047C404.413 26.3958 404.03 26.3453 403.64 26.374C403.457 26.3874 403.346 26.449 403.149 26.4525C403.01 26.455 402.843 26.4002 402.667 26.3979C402.492 26.3957 402.112 26.4406 402.042 26.4413C401.791 26.4443 402.068 26.4058 401.896 26.4039C401.066 26.3951 400.101 26.3745 399.283 26.4004C399.183 26.4036 399.322 26.4489 399.308 26.4504C398.625 26.506 398.99 26.447 398.805 26.4064C398.627 26.3671 397.319 26.3885 397.31 26.4673C397.27 26.3686 396.979 26.444 396.904 26.4469C396.61 26.4581 396.667 26.3727 396.383 26.3991C396.278 26.4088 396.482 26.4665 396.369 26.4648C396.092 26.4606 395.842 26.3679 395.472 26.3586C395.383 26.3563 395.354 26.3976 395.196 26.3962C395.037 26.3948 394.371 26.3443 394.678 26.4314C394.274 26.3616 394.193 26.3999 393.724 26.3979C393.605 26.3974 393.452 26.3308 393.198 26.3514C393.113 26.3584 393.115 26.4226 392.986 26.4231C392.692 26.4245 392.414 26.3581 392.04 26.3555C391.341 26.3504 390.596 26.3971 389.867 26.3805C389.669 26.3759 389.718 26.3114 389.43 26.3101C389.388 26.3101 389.041 26.3659 388.842 26.3607C388.722 26.3575 388.101 26.3183 387.975 26.3152C387.768 26.3101 387.731 26.3725 387.618 26.3603C387.29 26.3251 387.553 26.2333 387.158 26.3589C387.028 26.2893 386.798 26.2963 386.724 26.2105C386.589 26.3045 386.415 26.2142 386.155 26.2457C385.894 26.2772 385.681 26.4592 385.618 26.2634C385.496 26.2872 384.978 26.3278 384.89 26.3307C384.633 26.3391 384.77 26.285 384.576 26.2923C384.542 26.2935 384.578 26.3306 384.358 26.3269C384.214 26.3245 383.157 26.3222 383.094 26.3171C382.374 26.2591 383.486 26.2804 383.642 26.2403C383.669 26.2508 383.697 26.2614 383.726 26.2718C384.044 26.2893 383.863 26.2056 383.719 26.1862C383.574 26.1668 383.305 26.204 383.185 26.1766C383.125 26.1628 383.162 26.0625 383.343 26.0746C383.15 26.0437 383.414 26.0111 383.337 25.982C383.253 25.9502 382.385 25.9404 382.38 25.9957C382.542 25.9976 382.744 25.9957 382.908 25.998C383.123 26.094 382.471 26.4221 381.874 26.291C381.44 26.1962 382.155 26.1208 381.129 26.2004C381.287 26.2042 381.42 26.2132 381.564 26.2172C381.579 26.2893 381.346 26.21 381.227 26.233C381.169 26.2442 381.524 26.2952 381.216 26.3122C380.951 26.2091 380.747 26.3128 380.303 26.314C380.426 26.2956 380.55 26.2773 380.673 26.259C379.922 26.1843 381.666 26.1596 380.206 26.1178C380.382 26.1145 380.557 26.1154 380.733 26.1103C380.648 26.0725 380.785 25.9615 380.708 25.9381C380.507 25.8765 380.21 25.9136 379.965 25.9082C379.858 25.906 379.924 25.876 379.915 25.8758C379.768 25.8725 379.801 25.9164 379.672 25.9192C379.51 25.9227 379.041 25.88 378.965 25.8849C378.769 25.8973 379.096 25.984 379.077 25.9904C378.952 26.0324 378.696 25.9976 378.709 26.0525C379.325 26.0147 381.099 26.0632 379.494 26.154C379.937 26.2428 379.809 26.3651 379.173 26.3747C378.646 26.3827 378.986 26.3337 378.712 26.2798C378.676 26.2731 377.971 26.2473 377.935 26.2854C377.964 26.1977 377.734 26.12 377.888 26.0294C377.911 26.0161 378.2 26.0214 378.099 25.9486C378.048 25.912 377.904 25.8325 377.927 25.7859C377.868 25.8183 377.805 25.8547 377.745 25.8885C377.311 25.8979 377.25 25.863 377.013 25.8027C377.024 25.8279 377.243 25.9337 376.91 25.9015C376.893 25.8996 376.878 25.8616 376.709 25.8428C376.368 25.805 376.296 25.7932 376.559 25.6816C375.851 25.7453 375.699 25.6209 374.974 25.6573C375.118 25.8007 375.373 25.7652 376.037 25.7376C376.066 25.7717 376.079 25.8055 376.109 25.8399C375.225 25.7626 375.662 25.7705 375.161 25.8397C375.038 25.8567 374.385 25.8386 374.603 25.9351C374.654 25.9579 375.06 25.9553 375.014 25.9911C375.005 25.9979 374.511 26.0153 374.468 26.006C373.922 25.8918 374.898 25.8121 373.394 25.8538C373.352 25.855 373.338 25.8967 373.257 25.9026C373.104 25.9134 373.102 25.865 372.966 25.8762C372.83 25.8874 372.642 25.9525 372.437 25.8923C372.063 25.7828 372.945 25.7198 373.338 25.7779C373.498 25.6347 370.69 25.6316 370.516 25.6438C369.757 25.6972 371.021 25.6664 371.086 25.7061C371.113 25.7229 371.1 25.9358 371.419 25.7976C371.514 25.7567 371.119 25.7027 371.355 25.6802C371.591 25.6576 371.497 25.7203 371.514 25.7247C371.573 25.7397 371.824 25.7164 371.857 25.7253C372.358 25.8602 372.312 26.0641 371.648 25.7629C371.358 25.831 372.022 25.9395 371.663 25.9857C371.226 26.0418 370.907 25.9447 370.852 25.9404C370.193 25.8886 370.953 26.0303 370.148 25.985C369.7 25.9598 370.818 25.8907 369.795 25.9C368.939 25.9079 369.402 25.9572 369.339 26.0694C369.325 26.0956 368.856 26.1278 369.494 26.1162C369.512 26.087 369.547 26.0485 369.587 26.0216C369.744 26.0429 370.005 26.1891 370.088 26.1942C370.495 26.2186 370.475 26.1427 370.715 26.2321C370.544 26.1343 370.822 26.1932 370.927 26.1725C371.315 26.0964 370.806 26.0682 371.677 26.166C371.564 26.1201 371.461 26.0751 371.351 26.0294C371.455 26.0279 371.56 26.0263 371.665 26.0247C371.821 26.1256 372.376 26.1127 371.873 26.2144C372.478 26.2432 372.722 26.2212 372.855 26.1427C372.88 26.1277 372.971 26.1217 373.077 26.1203C373.057 26.0982 373.031 26.0299 373.048 26.0216C373.199 25.948 373.432 26.0751 373.352 26.1237C373.427 26.126 373.486 26.1287 373.507 26.1299C373.639 26.1374 373.38 26.1813 373.487 26.1963C373.523 26.2012 373.895 26.1917 373.903 26.2095C373.947 26.3239 373.334 26.2414 374.566 26.3079C374.596 26.2037 374.023 26.2266 374.17 26.1161C374.328 25.9973 374.65 26.1566 374.72 26.0109C374.746 26.0348 374.758 26.0548 374.78 26.0821C375.279 26.0186 375.285 26.14 375.437 26.1668C375.733 26.2191 377.092 26.2112 375.872 26.1061C376.05 26.0956 376.233 26.0907 376.41 26.0814C376.451 26.2991 376.342 26.2125 377.198 26.2457C377.386 26.253 377.447 26.3488 377.632 26.2351C377.607 26.3466 378.164 26.2792 378.216 26.2928C378.55 26.3808 377.311 26.5033 377.153 26.3061C376.944 26.3829 376.944 26.2814 376.711 26.2949C376.374 26.3143 376.327 26.334 375.927 26.2592C375.533 26.3647 377.469 26.3056 376.295 26.4456C375.122 26.5855 368.287 26.6636 366.692 26.6846C363.804 26.7226 362.285 26.7474 359.69 26.7411C359.558 26.7408 358.975 26.7434 358.5 26.729C358.058 26.7156 357.71 26.6875 357.904 26.6288C357.961 26.6113 358.792 26.5649 358.08 26.4692C358.225 26.5257 357.805 26.5624 357.77 26.5683C356.964 26.7034 357.431 26.7365 356.161 26.7379ZM352.396 25.6504C354.053 25.6782 352.836 25.5967 353.18 25.4127C352.967 25.4121 352.756 25.4116 352.543 25.4111C352.599 25.4226 352.654 25.4342 352.71 25.4457C352.71 25.4457 352.71 25.4457 352.71 25.4457C352.606 25.5139 352.501 25.5822 352.396 25.6504ZM325.302 25.5272C325.367 25.5029 325.431 25.4787 325.501 25.4549C325.72 25.4625 325.938 25.4699 326.157 25.4774C326.131 25.4938 326.105 25.5105 326.079 25.5269C325.82 25.5262 325.562 25.5254 325.302 25.5272ZM373.57 25.7512C373.88 25.8186 373.852 25.6984 374.264 25.7531C374.214 25.6644 374.158 25.5777 374.104 25.4898C373.791 25.503 373.72 25.5367 373.379 25.515C373.419 25.5435 373.459 25.5722 373.498 25.6009C373.555 25.5948 373.615 25.5878 373.67 25.5824C373.757 25.6622 373.213 25.6741 373.569 25.7514C373.569 25.7513 373.57 25.7513 373.57 25.7512ZM376.747 25.7155C376.914 25.7271 377.574 25.7705 377.665 25.7337C377.97 25.6091 376.106 25.6882 377.48 25.5774C377.474 25.56 377.48 25.5428 377.48 25.5255C377.229 25.5194 376.98 25.5141 376.727 25.5092C376.741 25.5782 376.732 25.6462 376.747 25.7155ZM358.391 25.6427C358.418 25.6437 358.455 25.644 358.5 25.6436C358.885 25.6398 359.827 25.5855 359.47 25.5148C359.353 25.4917 358.808 25.6046 358.6 25.5997C358.508 25.5975 358.55 25.5677 358.5 25.5565C358.477 25.5515 358.435 25.5503 358.352 25.5574C358.363 25.5847 358.371 25.6149 358.391 25.6425C358.391 25.6426 358.391 25.6427 358.391 25.6427ZM357.91 26.0028C358.106 25.9947 358.303 25.9849 358.5 25.9757C358.57 25.9724 358.64 25.9692 358.71 25.9661C358.652 25.945 358.577 25.9343 358.5 25.927C358.319 25.9098 358.126 25.9112 358.11 25.8417C358.183 25.8341 358.255 25.8267 358.328 25.8191C358.384 25.8408 358.439 25.8626 358.494 25.8842C358.496 25.8838 358.498 25.8833 358.5 25.8828C358.721 25.8299 358.588 25.8037 359.011 25.8191C358.836 25.7178 358.758 25.6481 358.5 25.6606C358.376 25.6665 358.211 25.6913 357.975 25.7404C358.113 25.6591 357.983 25.3939 357.578 25.5834C357.503 25.6186 357.819 25.6421 357.823 25.6477C357.871 25.7173 357.696 25.7617 357.748 25.8275C357.771 25.8572 357.964 25.8568 357.993 25.8981C358.006 25.9182 357.823 25.9757 357.91 26.0028ZM357.382 25.6498C357.464 25.6076 357.184 25.5075 356.94 25.5278C356.561 25.5593 357.159 25.6545 357.382 25.6498ZM325.301 25.5273C325.301 25.5272 325.302 25.5272 325.302 25.5272C325.302 25.5273 325.302 25.5274 325.301 25.5275C325.301 25.5274 325.301 25.5273 325.301 25.5273ZM375.887 25.6667C376.084 25.6309 376.375 25.6361 376.353 25.5791C376.449 25.5903 376.545 25.6013 376.641 25.6125C376.64 25.5954 376.638 25.5782 376.637 25.5612C376.35 25.5506 376.063 25.5399 375.776 25.529C375.812 25.5749 375.845 25.6209 375.887 25.6667ZM379.019 25.7066C379.381 25.7124 379.078 25.6349 379.157 25.5974C379.236 25.56 379.558 25.5904 379.52 25.5367C379.308 25.5346 379.086 25.5325 378.87 25.5306C378.927 25.589 378.967 25.6485 379.02 25.7066C379.02 25.7066 379.02 25.7066 379.019 25.7066ZM345.632 25.5893C345.877 25.6062 345.777 25.6653 346.261 25.596C346.261 25.596 346.26 25.596 346.26 25.596C345.799 25.5476 345.206 25.5044 344.698 25.5513C345.009 25.6137 345.246 25.5631 345.632 25.5893ZM372.713 25.5766C372.609 25.6235 373.091 25.6627 373.198 25.6191C373.37 25.5486 372.871 25.5054 372.713 25.5766ZM335.731 26.0046C335.358 26.149 336.065 26.311 336.805 26.241C336.869 26.2349 336.391 26.189 336.532 26.1608C336.547 26.1581 336.809 26.1615 336.874 26.1414C336.939 26.1213 336.871 26.0746 336.977 26.055C337.164 26.0207 337.585 26.0842 337.725 26.0392C337.743 26.0332 337.482 25.9708 337.465 25.9684C337.197 25.9306 336.938 26.0122 336.896 26.0128C336.683 26.0156 336.715 25.9516 336.661 25.9365C336.559 25.9082 336.38 25.9365 336.367 25.9344C336.043 25.8783 336.784 25.8943 336.884 25.8712C337.153 25.809 336.904 25.751 337.55 25.7159C337.611 25.7126 338.346 25.7163 337.42 25.6446C339.238 25.4952 336.507 25.5597 336.21 25.5926C336.074 25.6078 336.281 25.6688 336.198 25.6963C336.009 25.7591 335.686 25.7702 335.715 25.8587C335.777 26.0448 336.201 25.9229 336.493 25.9542C336.462 25.9946 336.45 26.034 336.394 26.0736C336.481 26.0204 335.758 25.9938 335.731 26.0043C335.731 26.0044 335.731 26.0045 335.731 26.0046ZM340.332 25.792C340.741 25.8481 340.712 25.7306 341.086 25.7978C341.416 25.6923 340.765 25.6994 340.689 25.6934C340.343 25.6669 340.351 25.5521 339.997 25.5874C340.119 25.6553 340.218 25.7239 340.332 25.792ZM336.781 25.7435C337.054 25.684 336.566 25.685 336.546 25.6737C336.33 25.553 337.793 25.5764 336.781 25.7435ZM359.981 25.8791C360.12 25.8831 360.032 25.8262 360.154 25.8094C360.277 25.7924 360.696 25.8411 360.685 25.8057C360.674 25.7702 359.907 25.6781 360.677 25.6581C360.651 25.6382 360.66 25.6233 360.647 25.6053C360.436 25.6048 360.222 25.6039 360.01 25.6034C360.126 25.6607 360.245 25.7211 360.357 25.7766C360.238 25.8222 360.171 25.7637 360.165 25.7637C360.165 25.7637 360.165 25.7638 360.165 25.7638C359.943 25.7684 359.67 25.8702 359.981 25.8791ZM349.059 25.7003C349.017 25.8429 349.344 25.6837 349.479 25.666C349.613 25.6484 349.797 25.7012 349.728 25.6398C349.511 25.5975 349.063 25.6844 349.059 25.7005C349.059 25.7004 349.059 25.7004 349.059 25.7003ZM342.55 25.7917C342.893 25.7571 342.838 25.72 343.257 25.7623C343.241 25.7278 343.225 25.6926 343.208 25.6587C342.876 25.658 342.899 25.758 342.514 25.7178C342.451 25.7112 342.586 25.6312 342.302 25.6569C342.385 25.6996 342.468 25.7469 342.55 25.7917ZM344.247 25.6639C343.854 25.6691 343.542 25.9481 344.266 25.8223C344.373 25.8035 344.542 25.6599 344.247 25.6639ZM356.356 25.8862C357.025 25.8942 356.265 25.8492 356.091 25.8063C357.648 25.772 355.916 25.8181 355.761 25.6755C355.57 25.7161 355.215 25.8089 355.61 25.8338C355.775 25.8441 355.715 25.8017 355.724 25.8018C356.028 25.8123 355.991 25.8818 356.356 25.8862ZM339.623 25.7988C339.648 25.7967 339.609 25.7486 339.689 25.7389C339.769 25.7294 339.951 25.7631 339.969 25.7335C339.987 25.7038 339.622 25.6808 339.51 25.7024C339.399 25.7243 339.395 25.8174 339.623 25.7988ZM342.188 25.9175C342.522 25.8828 341.976 25.7054 341.903 25.7063C341.265 25.7155 342.207 25.8613 342.188 25.9175ZM354.804 26.1875C355.61 26.0974 355.02 25.9408 354.516 25.847C354.449 25.866 354.381 25.8851 354.315 25.904C354.618 25.7882 355.149 25.6737 353.968 25.7747C354.614 25.8019 354.073 25.833 354.069 25.8396C353.998 26.0523 354.955 25.9535 354.803 26.1875C354.804 26.1875 354.804 26.1875 354.804 26.1875ZM338.537 25.7481C338.186 25.7488 337.274 25.7856 337.7 25.8783C337.979 25.8349 338.257 25.7915 338.537 25.7481ZM367.996 26.175C368.282 26.228 368.546 26.2271 368.9 26.2236C368.582 26.1465 368.791 26.1376 368.898 26.1187C369.061 26.0903 368.666 26.0926 368.665 26.0874C368.673 26.0141 368.924 26.0027 368.352 26.0045C368.493 25.9789 368.633 25.9532 368.774 25.9278C368.338 25.9245 368.235 25.8767 367.959 25.8182C368.227 25.961 367.874 25.8716 367.553 25.9427C367.393 25.9782 367.85 26.1479 367.997 26.175C367.996 26.175 367.996 26.175 367.996 26.175ZM355.637 26.2161C355.72 26.1904 355.796 26.1556 355.876 26.1262C355.963 26.1234 356.051 26.121 356.138 26.1182C356.149 26.1409 356.158 26.1647 356.171 26.1866C356.286 26.1932 356.241 26.1615 356.275 26.1585C356.275 26.1587 356.275 26.1588 356.275 26.1589C356.766 26.1169 356.967 26.1216 357.352 26.192C357.352 26.1223 357.352 26.0526 357.352 25.9829C357.266 25.9896 357.178 25.9961 357.092 26.0025C357.046 26.04 357 26.0774 356.954 26.1149C356.854 26.0942 356.755 26.0737 356.655 26.0531C356.574 26.0665 356.478 26.0807 356.409 26.0938C356.009 25.8991 356.917 26.0314 356.925 25.9505C356.93 25.8986 356.016 25.9008 355.885 25.9367C355.866 25.942 356.063 26.087 355.729 26.0114C355.677 25.9995 355.659 25.6858 355.298 25.9398C355.247 25.9759 355.426 26.1707 355.637 26.2161ZM358.955 26.3173C358.441 26.1166 360.337 26.3288 359.519 26.1637C359.752 26.0715 359.709 26.0727 359.474 25.9908C359.453 25.9835 359.616 25.9581 359.602 25.9549C359.382 25.9098 359.117 25.9337 359.115 25.8516C359.056 25.856 359 25.8599 358.94 25.8643C359.188 25.9416 358.794 25.9936 358.642 26.0588C358.573 26.0884 358.732 26.0975 358.674 26.1234C358.66 26.1292 358.569 26.1242 358.5 26.126C358.458 26.1271 358.424 26.1308 358.42 26.141C358.411 26.1711 358.44 26.2064 358.5 26.2399C358.562 26.2745 358.658 26.3072 358.778 26.3302C358.778 26.3303 358.778 26.3303 358.778 26.3304C358.838 26.3264 358.895 26.3215 358.955 26.3173ZM347.975 26.1506C347.888 26.0396 347.537 26.0079 348.21 25.9536C348.177 25.9318 348.143 25.9101 348.11 25.8883C347.996 25.8902 347.886 25.8921 347.771 25.8939C347.425 26.2207 346.793 25.8519 347.197 26.0836C347.242 26.1088 347.511 26.0807 347.245 26.1491C347.245 26.1492 347.246 26.1492 347.246 26.1493C347.617 26.1283 347.664 26.089 347.975 26.1506ZM350.46 26.0732C351.316 25.8398 349.277 25.943 349.617 26.0049C349.648 26.0105 350.527 25.9603 350.46 26.0732ZM343.589 26.2764C343.973 26.2804 343.999 26.1544 343.96 26.1091C343.921 26.0636 343.655 26.1096 343.621 26.1024C343.509 26.0788 343.746 26.0632 343.601 26.0308C343.553 26.0203 342.885 25.9754 342.854 25.9808C342.684 26.011 342.933 26.1149 342.884 26.1268C342.725 26.1658 342.51 26.1117 342.464 26.167C342.365 26.2849 342.766 26.1611 342.834 26.1591C343.039 26.1535 343.021 26.2199 343.174 26.2332C343.327 26.2464 343.427 26.2237 343.562 26.2284C343.607 26.23 343.57 26.2759 343.589 26.2764ZM344.859 26.0104C344.458 26.1057 345.434 26.2094 345.55 26.1871C345.89 26.1208 345.051 25.9649 344.859 26.0104ZM357.669 26.0144C357.302 26.0835 358.156 26.1395 358.4 26.1117C358.355 26.0829 357.795 25.9906 357.669 26.0144ZM354.581 26.1871C354.918 26.1656 354.471 26.0099 354.19 26.0123C354.025 26.1147 354.18 26.0944 354.364 26.0986C354.547 26.1028 354.318 26.2039 354.581 26.1871ZM339.426 26.1626C339.498 26.1642 340.671 26.0796 339.997 26.0445C339.946 26.0418 339.125 26.0567 339.063 26.0725C338.938 26.1043 339.238 26.158 339.426 26.1626ZM352.964 26.3383C353.142 26.2497 353.318 26.2509 353.154 26.147C353.154 26.147 353.153 26.147 353.153 26.147C353.605 26.1152 353.625 26.3278 353.722 26.3232C354.062 26.3073 353.74 26.1559 353.953 26.1063C353.457 26.153 353.599 26.0509 353.222 26.0445C353.137 26.0431 352.798 26.104 352.748 26.142C352.699 26.18 352.872 26.2938 352.964 26.3383ZM337.77 26.1846C338.166 26.2185 338.528 26.0751 337.979 26.0523C337.711 26.0411 337.528 26.164 337.77 26.1846ZM377.318 26.2205C377.257 26.1829 377.195 26.1454 377.13 26.1082C377.276 26.0991 377.422 26.0898 377.568 26.0805C377.453 26.0924 377.337 26.1041 377.221 26.1159C377.495 26.129 377.62 26.1974 377.319 26.2205C377.318 26.2205 377.318 26.2205 377.318 26.2205ZM387.072 26.2492C387.195 26.2854 387.436 26.1732 387.406 26.1645C387.175 26.0993 386.902 26.199 387.072 26.2492ZM358.21 26.3551C358.666 26.3708 358.353 26.1884 358.073 26.1759C358.244 26.2108 357.952 26.3462 358.21 26.3551ZM383.642 26.2403C383.601 26.2246 383.56 26.2089 383.514 26.1932C383.658 26.215 383.683 26.2297 383.642 26.2403ZM339.612 26.3236C339.682 26.3376 340.196 26.3492 340.266 26.3318C340.41 26.2955 340.009 26.1948 339.772 26.2257C339.746 26.2291 339.543 26.3096 339.613 26.3236C339.613 26.3236 339.612 26.3236 339.612 26.3236ZM377.934 26.2904C377.933 26.2886 377.934 26.287 377.935 26.2854C377.935 26.2871 377.935 26.2887 377.934 26.2904ZM397.314 26.4757C397.311 26.4728 397.309 26.47 397.31 26.4673C397.311 26.47 397.313 26.4728 397.314 26.4757ZM343.241 26.4784C343.412 26.6522 343.807 26.5598 343.495 26.4738C343.477 26.4693 343.282 26.4788 343.241 26.4784Z" fill="#5EA4FF" fill-opacity="0.7"/>
</g>
<g opacity="0.3" filter="url(#filter3_d_55838_307)">
<path d="M623.358 10.9388C620.359 11.1331 617.076 11.3647 614.063 11.5259C613.693 11.5457 613.715 11.4939 613.611 11.4938C613.326 11.4935 613.159 11.5636 612.952 11.5724C611.946 11.6153 611.005 11.6664 610.018 11.71C609.002 11.7549 609.472 11.5681 609.117 11.5524C608.423 11.5217 609.022 11.6882 608.754 11.7512C607.963 11.7891 607.164 11.8177 606.371 11.8456C606.563 11.8143 606.755 11.7834 606.949 11.7533C606.604 11.7711 606.108 11.771 606.683 11.681C606.554 11.6745 606.434 11.6649 606.302 11.6589C606.27 11.7354 605.66 11.7801 605.607 11.8277C605.554 11.8752 605.897 11.8433 605.895 11.8473C605.875 11.9035 604.462 11.9181 604.36 11.9184C604.09 11.9192 604.32 11.8123 604.092 11.8327C603.699 11.8678 603.973 12.0383 603.425 11.8233C603.218 11.9176 603.197 11.8767 602.929 11.8882C602.894 11.8897 602.924 11.9348 602.909 11.937C602.505 11.9975 602.811 11.8906 602.809 11.8861C602.767 11.8083 602.334 11.8716 602.242 11.8697C601.085 11.8471 600.237 11.8358 599.022 11.8908C598.759 11.9027 597.961 11.986 597.706 11.9885C597.455 11.991 597.586 11.9247 597.453 11.9053C597.252 12.0575 597.052 12.0855 596.574 12.024C596.405 12.1365 596.422 12.0533 596.087 12.095C595.808 12.1295 595.327 12.282 595.013 12.1981C595.367 12.185 595.327 12.1376 595.723 12.0823C595.855 12.0639 597.236 11.9741 597.127 11.8771C597.07 11.8266 596.615 11.9052 596.597 11.8964C596.49 11.8449 596.741 11.7575 596.969 11.7681C596.914 11.7833 596.846 11.7995 596.786 11.8151C597.3 11.8553 596.932 11.5991 597.334 11.8178C597.384 11.8446 597.367 11.8769 597.448 11.9036C597.464 11.8895 597.365 11.8631 597.448 11.852C597.532 11.8407 597.697 11.8922 597.718 11.8387C597.749 11.7608 597.4 11.8129 597.373 11.8101C597.373 11.8106 597.372 11.8111 597.372 11.8116C597.136 11.7862 597.623 11.7507 597.646 11.742C597.794 11.6853 597.689 11.6556 597.913 11.6023C598.041 11.5719 598.37 11.5641 598.491 11.5492C598.611 11.5342 598.421 11.5104 598.502 11.4975C598.583 11.4847 598.686 11.5055 598.78 11.4905C598.821 11.484 598.816 11.4442 598.836 11.4416C599.046 11.4128 598.913 11.5046 599.105 11.4874C599.229 11.4761 599.641 11.3722 599.352 11.3674C599.49 11.3506 599.624 11.3362 599.761 11.3212C599.674 11.3148 599.584 11.3124 599.498 11.3038C599.758 11.3064 599.871 11.2307 600.033 11.2153C600.195 11.1999 600.346 11.2727 600.522 11.2213C600.897 11.1121 599.956 11.2113 599.838 11.2036C599.792 11.2005 599.963 11.1252 599.99 11.1216C600.109 11.106 600.254 11.1429 600.347 11.1349C600.677 11.1062 600.876 11.0328 601.19 11.0005C602.262 10.8908 603.592 10.7725 604.609 10.6946C604.987 10.6657 605.22 10.7193 605.39 10.7066C605.787 10.6768 605.832 10.6143 606.179 10.5891C606.695 10.5514 607.426 10.5571 607.858 10.5409C608.157 10.5296 608.424 10.455 608.501 10.4487C609.579 10.3596 610.891 10.2775 611.785 10.22C612.206 10.193 612.41 10.2449 612.496 10.2375C612.869 10.2057 612.766 10.1569 613.069 10.1433C613.232 10.1358 613.266 10.1869 613.288 10.1876C613.482 10.1928 613.516 10.1212 613.666 10.1094C614.53 10.0414 615.365 10.0338 616.221 9.9861C616.284 9.98268 616.28 10.0137 616.32 10.0096C616.492 9.99107 616.409 9.9479 616.589 9.93293C616.964 9.90159 617.35 9.88509 617.749 9.86593C617.788 9.86403 617.808 9.90231 617.898 9.8966C617.989 9.89086 618.055 9.84916 618.197 9.84224C618.568 9.82414 618.936 9.8456 619.328 9.82314C619.393 9.81936 619.471 9.76679 619.568 9.76113C619.874 9.7433 620.329 9.75766 620.591 9.74261C621.455 9.69266 622.25 9.61506 623.064 9.56305C623.255 9.55093 623.427 9.58415 623.527 9.57889C623.751 9.5669 623.579 9.53609 623.806 9.52149C624.689 9.46497 625.573 9.41286 626.459 9.36057C627.441 9.30724 628.422 9.2539 629.408 9.1942C630.145 9.14958 631.04 9.05376 631.754 9.02371C632.051 9.01134 632.108 9.06564 632.318 9.05384C632.692 9.03252 632.755 8.95486 633.149 8.92431C633.464 8.90003 633.829 8.95236 634.156 8.92855C634.483 8.90474 634.63 8.82441 635.006 8.79372C635.315 8.76851 635.75 8.77548 636.087 8.7504C639.176 8.52033 642.218 8.31191 645.332 8.18482C646.431 8.13999 647.648 8.0581 648.787 8.06159C648.894 8.06197 648.735 8.14055 649.075 8.10596C649.258 8.08731 649.511 8.01279 649.935 7.98486C652.456 7.81904 655.154 7.78796 657.717 7.61196C661.556 7.3481 665.508 6.62297 668.888 7.14503C669.054 7.17068 668.975 7.34878 668.88 7.40367C668.787 7.37392 668.7 7.33718 668.603 7.30314C668.495 7.52621 668.513 7.46872 668.067 7.47549C667.793 7.47956 668.017 7.55908 667.873 7.59388C667.686 7.6389 666.804 7.79785 666.966 7.64474C666.912 7.67278 666.863 7.69953 666.811 7.72697C666.169 7.78645 665.546 7.85902 664.92 7.93706C664.812 7.95062 664.809 7.99581 664.698 8.00957C664.397 8.04685 664.156 8.03144 663.846 8.05425C663.677 8.06661 663.657 8.11986 663.436 8.12954C663.215 8.13919 663.216 8.06888 662.919 8.16271C663.12 8.23902 662.241 8.22676 661.93 8.25048C661.885 8.25384 661.519 8.35457 661.322 8.35708C661.124 8.3598 660.821 8.32702 660.517 8.37362C660.374 8.3955 660.291 8.46208 660.137 8.47467C660.028 8.48351 659.894 8.43655 659.757 8.44237C659.619 8.44819 659.324 8.51056 659.269 8.5145C659.073 8.52906 659.287 8.47786 659.153 8.48385C658.502 8.51336 657.746 8.5372 657.106 8.60075C657.028 8.60851 657.139 8.64736 657.129 8.64948C656.597 8.73648 656.879 8.66072 656.732 8.62869C656.59 8.59774 655.568 8.67934 655.565 8.75846C655.527 8.66179 655.304 8.75043 655.245 8.7568C655.016 8.7815 655.056 8.6936 654.835 8.73309C654.753 8.7475 654.916 8.79575 654.828 8.79923C654.61 8.80783 654.409 8.72677 654.119 8.73453C654.049 8.73637 654.029 8.77894 653.905 8.78485C653.78 8.79075 653.256 8.77097 653.502 8.84378C653.181 8.79269 653.12 8.83468 652.752 8.85439C652.659 8.85929 652.535 8.7999 652.338 8.83216C652.271 8.8431 652.277 8.90703 652.176 8.91349C651.946 8.92844 651.724 8.87493 651.431 8.88954C650.883 8.9167 650.303 8.99761 649.731 9.0146C649.575 9.01918 649.61 8.9525 649.384 8.96454C649.351 8.96649 649.083 9.03817 648.926 9.04211C648.832 9.04449 648.344 9.03396 648.245 9.03659C648.083 9.04109 648.057 9.10508 647.968 9.09812C647.709 9.07813 647.91 8.97433 647.608 9.11793C647.502 9.05439 647.322 9.07197 647.259 8.98979C647.159 9.08976 647.018 9.00767 646.816 9.05109C646.613 9.09453 646.457 9.28603 646.396 9.09347C646.302 9.12283 645.898 9.18726 645.83 9.19425C645.629 9.2145 645.734 9.15409 645.582 9.17035C645.555 9.17315 645.585 9.20847 645.413 9.21494C645.3 9.21914 644.472 9.26555 644.423 9.26339C643.855 9.23867 644.728 9.20865 644.847 9.16146C644.869 9.17071 644.891 9.18 644.915 9.18903C645.165 9.19184 645.018 9.11666 644.904 9.10391C644.79 9.09117 644.581 9.1408 644.486 9.11889C644.438 9.10788 644.461 9.00603 644.603 9.00981C644.45 8.98786 644.655 8.94314 644.593 8.91767C644.526 8.88977 643.845 8.91999 643.845 8.97538C643.972 8.96983 644.13 8.95862 644.258 8.95334C644.432 9.03935 643.941 9.39686 643.465 9.29356C643.12 9.21886 643.675 9.11066 642.877 9.23737C643.001 9.23395 643.106 9.23676 643.218 9.23417C643.234 9.30539 643.048 9.23702 642.955 9.26542C642.911 9.27926 643.192 9.31384 642.951 9.34498C642.738 9.25434 642.584 9.36718 642.236 9.38887C642.332 9.36484 642.428 9.3409 642.523 9.31687C641.931 9.27687 643.295 9.17194 642.149 9.19744C642.287 9.18604 642.424 9.17887 642.562 9.16567C642.492 9.13188 642.593 9.01479 642.532 8.99492C642.371 8.94274 642.14 8.99347 641.948 8.99937C641.864 9.00204 641.914 8.96907 641.907 8.96931C641.792 8.97276 641.82 9.0151 641.719 9.02384C641.592 9.0348 641.223 9.01376 641.164 9.02211C641.011 9.04357 641.272 9.11501 641.257 9.12234C641.162 9.17002 640.959 9.14706 640.973 9.20125C641.453 9.13517 642.845 9.10185 641.594 9.26645C641.945 9.33462 641.853 9.46261 641.355 9.50153C640.943 9.53381 641.206 9.46924 640.988 9.42807C640.96 9.42296 640.407 9.42972 640.381 9.46941C640.398 9.38052 640.213 9.31352 640.329 9.21605C640.345 9.20174 640.572 9.19365 640.489 9.12563C640.447 9.09146 640.329 9.01869 640.345 8.97114C640.3 9.00619 640.254 9.04541 640.208 9.08189C639.869 9.1113 639.819 9.07933 639.63 9.02999C639.64 9.05464 639.818 9.15024 639.555 9.13343C639.542 9.13229 639.528 9.09504 639.394 9.084C639.125 9.06201 639.068 9.05356 639.267 8.93009C638.717 9.02621 638.59 8.90907 638.024 8.9788C638.146 9.11536 638.343 9.06816 638.862 9.00996C638.886 9.04269 638.899 9.07578 638.924 9.10882C638.227 9.07235 638.57 9.06009 638.182 9.15231C638.087 9.1749 637.574 9.18688 637.75 9.27325C637.792 9.29357 638.11 9.27225 638.075 9.31016C638.069 9.31739 637.683 9.35746 637.649 9.35022C637.214 9.26132 637.974 9.13686 636.798 9.24772C636.766 9.25085 636.757 9.29321 636.694 9.30274C636.575 9.32059 636.571 9.27238 636.465 9.28979C636.359 9.30724 636.215 9.38088 636.052 9.33026C635.752 9.23814 636.439 9.13461 636.751 9.17449C636.867 9.02426 634.668 9.15045 634.533 9.17069C633.941 9.25895 634.929 9.16997 634.982 9.2066C635.005 9.22212 635.007 9.43529 635.249 9.28264C635.321 9.23741 635.008 9.20177 635.191 9.16837C635.375 9.13495 635.305 9.20185 635.319 9.20543C635.366 9.21769 635.561 9.18291 635.587 9.19029C635.988 9.30188 635.964 9.5075 635.426 9.23748C635.203 9.31876 635.73 9.39647 635.451 9.45915C635.112 9.53533 634.856 9.45311 634.813 9.45128C634.294 9.42994 634.897 9.53644 634.264 9.5283C633.912 9.52378 634.784 9.40325 633.983 9.45963C633.313 9.50694 633.678 9.53489 633.636 9.64972C633.626 9.67659 633.26 9.73033 633.76 9.68937C633.773 9.65938 633.797 9.61937 633.827 9.5906C633.951 9.60468 634.164 9.73862 634.23 9.73989C634.549 9.74544 634.53 9.67058 634.723 9.74877C634.583 9.65904 634.804 9.70503 634.885 9.6796C635.185 9.58576 634.784 9.58096 635.472 9.63844C635.381 9.59791 635.298 9.55773 635.209 9.5172C635.291 9.51082 635.373 9.50439 635.454 9.498C635.582 9.5916 636.016 9.55313 635.629 9.67777C636.104 9.67873 636.294 9.6455 636.393 9.56099C636.412 9.54486 636.483 9.53469 636.566 9.52834C636.549 9.50722 636.525 9.44029 636.538 9.43116C636.651 9.35075 636.841 9.46693 636.782 9.51905C636.841 9.51792 636.887 9.51792 636.903 9.51814C637.007 9.51957 636.807 9.57532 636.892 9.5854C636.92 9.58866 637.211 9.56195 637.218 9.57943C637.26 9.69154 636.775 9.63742 637.743 9.64703C637.76 9.54173 637.314 9.59094 637.422 9.47378C637.539 9.34792 637.8 9.49218 637.846 9.34344C637.868 9.36616 637.879 9.38557 637.898 9.41177C638.284 9.32542 638.297 9.4463 638.417 9.46604C638.652 9.50465 639.716 9.43419 638.754 9.38543C638.893 9.36673 639.036 9.35349 639.174 9.33605C639.219 9.55143 639.129 9.46994 639.801 9.46373C639.949 9.46239 640.002 9.55511 640.14 9.43311C640.127 9.54559 640.559 9.45267 640.601 9.46379C640.867 9.53628 639.905 9.71562 639.769 9.52612C639.61 9.61238 639.604 9.51105 639.422 9.53523C639.16 9.57014 639.124 9.59203 638.806 9.5357C638.504 9.65918 640.017 9.51101 639.106 9.70481C638.195 9.89861 632.846 10.2914 631.599 10.3858C629.501 10.5446 628.327 10.6376 626.544 10.7407C626.409 10.7491 626.268 10.7578 626.122 10.7666C625.922 10.7788 624.409 10.8849 624.716 10.7433C624.76 10.7229 625.408 10.6354 624.844 10.5753C624.961 10.6245 624.635 10.6819 624.608 10.6896C623.985 10.8645 624.353 10.8743 623.358 10.9388ZM620.342 10.0407C621.641 9.98606 620.683 9.96525 620.941 9.76443C620.774 9.77448 620.608 9.78451 620.442 9.79456C620.486 9.80331 620.53 9.81205 620.575 9.8208C620.575 9.82079 620.575 9.82078 620.575 9.82076C620.498 9.89405 620.42 9.9674 620.342 10.0407ZM599.121 11.2646C599.17 11.2372 599.219 11.2098 599.272 11.1826C599.444 11.1792 599.615 11.1758 599.787 11.1724C599.768 11.1901 599.749 11.2079 599.73 11.2257C599.527 11.2378 599.325 11.2499 599.121 11.2646ZM636.931 9.13722C637.177 9.19018 637.148 9.07147 637.474 9.10717C637.429 9.02094 637.38 8.9369 637.334 8.85168C637.089 8.87922 637.035 8.91618 636.767 8.91022C636.8 8.93686 636.833 8.96362 636.865 8.99047C636.909 8.98175 636.956 8.97203 636.999 8.96409C637.072 9.0397 636.647 9.07666 636.93 9.13745C636.93 9.13737 636.93 9.1373 636.931 9.13722ZM639.417 8.95522C639.548 8.95906 640.068 8.97197 640.136 8.93114C640.368 8.7927 638.913 8.95748 639.982 8.78363C639.977 8.76647 639.98 8.74908 639.979 8.73181C639.783 8.73724 639.587 8.74348 639.389 8.75022C639.404 8.81841 639.401 8.88676 639.417 8.95522ZM625.035 9.73502C625.236 9.73186 626.189 9.61265 625.872 9.55371C625.779 9.53648 625.359 9.67623 625.197 9.68165C625.091 9.68517 625.205 9.61593 624.999 9.6518C625.01 9.67844 625.018 9.70826 625.036 9.7348C625.035 9.73488 625.035 9.73495 625.035 9.73502ZM624.682 10.1183C624.888 10.0941 625.098 10.0668 625.306 10.0418C625.149 9.98116 624.852 10.0454 624.828 9.94751C624.885 9.93638 624.941 9.92533 624.997 9.91419C625.042 9.93306 625.087 9.952 625.131 9.97091C625.307 9.90575 625.197 9.88592 625.532 9.88027C625.32 9.74343 625.278 9.66549 624.716 9.85318C624.819 9.76512 624.7 9.50701 624.395 9.71619C624.338 9.75505 624.587 9.76279 624.59 9.7682C624.633 9.83526 624.498 9.88832 624.543 9.95136C624.564 9.97988 624.715 9.96984 624.74 10.0096C624.752 10.0291 624.612 10.0955 624.682 10.1183ZM624.246 9.7922C624.307 9.74604 624.081 9.66011 623.892 9.69245C623.597 9.74274 624.072 9.80798 624.246 9.7922ZM599.12 11.2647C599.121 11.2647 599.121 11.2646 599.121 11.2646C599.121 11.2647 599.121 11.2648 599.121 11.2649C599.121 11.2648 599.12 11.2648 599.12 11.2647ZM638.74 8.94611C638.892 8.90128 639.12 8.89309 639.1 8.83719C639.176 8.84397 639.252 8.85052 639.327 8.8573C639.326 8.84023 639.323 8.82317 639.321 8.80628C639.096 8.80887 638.871 8.81139 638.645 8.8138C638.676 8.8579 638.705 8.9023 638.74 8.94611ZM641.196 8.84168C641.479 8.83079 641.237 8.76733 641.297 8.7263C641.357 8.68526 641.611 8.70084 641.578 8.64896C641.411 8.65667 641.237 8.66478 641.069 8.67278C641.117 8.72851 641.151 8.7861 641.196 8.84164C641.196 8.84165 641.196 8.84167 641.196 8.84168ZM615.042 10.316C615.235 10.3206 615.161 10.3846 615.535 10.2914C615.535 10.2914 615.535 10.2914 615.534 10.2915C615.171 10.266 614.704 10.2524 614.309 10.3244C614.556 10.3712 614.739 10.309 615.042 10.316ZM636.249 9.00242C636.171 9.05399 636.55 9.07088 636.631 9.02249C636.762 8.94417 636.368 8.92407 636.249 9.00242ZM607.317 11.2226C607.034 11.3852 607.597 11.5118 608.172 11.4052C608.222 11.3959 607.845 11.3738 607.954 11.3387C607.965 11.3352 608.171 11.3256 608.22 11.3023C608.27 11.279 608.213 11.2358 608.295 11.2109C608.439 11.1675 608.774 11.2099 608.88 11.158C608.894 11.1511 608.685 11.1018 608.672 11.1002C608.46 11.0759 608.262 11.1702 608.23 11.1728C608.063 11.1862 608.084 11.1207 608.041 11.1084C607.959 11.0852 607.82 11.1224 607.81 11.1209C607.553 11.081 608.134 11.0602 608.211 11.0322C608.418 10.9566 608.219 10.9112 608.723 10.844C608.77 10.8377 609.346 10.8049 608.617 10.7794C610.03 10.5399 607.896 10.74 607.666 10.7875C607.56 10.8096 607.726 10.8602 607.663 10.8917C607.519 10.9638 607.267 10.9909 607.295 11.0778C607.355 11.2605 607.679 11.1177 607.91 11.1344C607.889 11.1763 607.882 11.2162 607.84 11.2585C607.905 11.2011 607.337 11.2104 607.317 11.2223C607.317 11.2224 607.317 11.2225 607.317 11.2226ZM610.906 10.7816C611.229 10.8174 611.199 10.7016 611.496 10.75C611.748 10.6284 611.239 10.6678 611.179 10.6656C610.906 10.6563 610.905 10.5414 610.63 10.5942C610.73 10.6559 610.812 10.7194 610.906 10.7816ZM608.122 10.9098C608.332 10.8369 607.95 10.8622 607.934 10.8518C607.757 10.7421 608.904 10.6928 608.122 10.9098ZM626.295 9.89187C626.404 9.88899 626.332 9.83652 626.426 9.81365C626.441 9.80996 626.463 9.80758 626.488 9.80603C626.619 9.79849 626.851 9.8145 626.843 9.78519C626.832 9.75023 626.226 9.69364 626.828 9.63823C626.806 9.61953 626.812 9.60427 626.801 9.58687C626.694 9.59287 626.585 9.59876 626.477 9.60469C626.417 9.60826 626.358 9.61174 626.3 9.61524C626.361 9.64803 626.422 9.68196 626.482 9.71515C626.517 9.73416 626.551 9.753 626.584 9.77124C626.545 9.79327 626.513 9.79549 626.488 9.79091C626.454 9.78509 626.435 9.76734 626.432 9.76752C626.432 9.76758 626.432 9.76764 626.432 9.7677C626.259 9.78331 626.051 9.89843 626.295 9.89187ZM617.732 10.2564C617.709 10.4008 617.955 10.2256 618.059 10.2013C618.163 10.177 618.311 10.2205 618.253 10.1627C618.08 10.1313 617.735 10.2403 617.732 10.2566C617.732 10.2565 617.732 10.2565 617.732 10.2564ZM612.642 10.6711C612.908 10.6196 612.863 10.5853 613.194 10.6067C613.179 10.5731 613.164 10.5387 613.149 10.5056C612.889 10.5215 612.913 10.6202 612.61 10.5992C612.56 10.5957 612.66 10.5092 612.439 10.549C612.507 10.5874 612.575 10.6305 612.642 10.6711ZM613.962 10.4592C613.655 10.484 613.429 10.7779 613.987 10.6164C614.07 10.5923 614.193 10.4405 613.962 10.4592ZM623.458 10.0791C623.982 10.0539 623.384 10.0467 623.245 10.0126C624.461 9.90102 623.108 10.033 622.978 9.89848C622.832 9.94845 622.559 10.0588 622.87 10.0639C623 10.066 622.95 10.0267 622.958 10.0264C623.196 10.0217 623.172 10.0929 623.458 10.0791ZM610.351 10.8238C610.37 10.8204 610.336 10.7743 610.399 10.7607C610.461 10.7472 610.605 10.7718 610.618 10.7414C610.63 10.7108 610.343 10.706 610.257 10.7331C610.171 10.7605 610.173 10.8536 610.351 10.8238ZM612.367 10.8147C612.626 10.7635 612.187 10.6136 612.13 10.618C611.631 10.659 612.378 10.7577 612.367 10.8147ZM622.261 10.457C622.887 10.327 622.415 10.2 622.014 10.1315C621.963 10.1538 621.911 10.1763 621.861 10.1984C622.09 10.0677 622.499 9.9271 621.581 10.0865C622.088 10.0816 621.666 10.1396 621.664 10.1463C621.621 10.3622 622.365 10.216 622.261 10.457C622.261 10.457 622.261 10.457 622.261 10.457ZM609.497 10.8271C609.223 10.8453 608.511 10.9273 608.85 10.9987C609.066 10.9415 609.281 10.8843 609.497 10.8271ZM632.59 9.8171C632.817 9.85682 633.024 9.84375 633.301 9.82398C633.047 9.76161 633.21 9.74313 633.293 9.71933C633.419 9.68343 633.11 9.70392 633.109 9.69878C633.11 9.62527 633.307 9.60232 632.859 9.63042C632.968 9.59842 633.076 9.5663 633.185 9.53446C632.843 9.55123 632.76 9.50822 632.54 9.46263C632.759 9.59278 632.476 9.51984 632.229 9.60553C632.106 9.64842 632.474 9.79675 632.591 9.81705C632.59 9.81707 632.59 9.81708 632.59 9.8171ZM622.915 10.4442C622.979 10.4144 623.036 10.3759 623.097 10.3426C623.165 10.3354 623.233 10.3286 623.302 10.3215C623.312 10.3436 623.32 10.3669 623.331 10.3881C623.422 10.389 623.385 10.3596 623.411 10.355C623.411 10.3551 623.411 10.3552 623.411 10.3553C623.793 10.289 623.951 10.2837 624.257 10.3348C624.252 10.2652 624.248 10.1957 624.243 10.1262C624.176 10.1371 624.108 10.1479 624.041 10.1587C624.007 10.1983 623.973 10.238 623.94 10.2776C623.86 10.262 623.781 10.2465 623.702 10.2308C623.64 10.2483 623.565 10.2672 623.512 10.2837C623.187 10.1092 623.906 10.1961 623.907 10.1151C623.908 10.0629 623.193 10.1106 623.092 10.153C623.077 10.1592 623.241 10.2941 622.975 10.2353C622.933 10.226 622.899 9.91382 622.632 10.1853C622.595 10.2238 622.747 10.4094 622.915 10.4442ZM625.519 10.3802C625.105 10.2054 626.602 10.323 625.951 10.1988C626.128 10.0952 626.094 10.0986 625.905 10.0286C625.889 10.0223 626.014 9.98891 626.003 9.98638C625.828 9.95226 625.622 9.98932 625.616 9.90751C625.569 9.91483 625.526 9.92149 625.479 9.92881C625.678 9.99366 625.373 10.0651 625.258 10.1378C625.206 10.1708 625.331 10.1719 625.287 10.2006C625.271 10.2111 625.095 10.2034 625.09 10.2309C625.079 10.2929 625.194 10.3686 625.382 10.4018C625.382 10.4019 625.382 10.402 625.382 10.402C625.428 10.3951 625.473 10.3873 625.519 10.3802ZM616.912 10.7596C616.837 10.6532 616.56 10.639 617.084 10.5514C617.057 10.5312 617.028 10.5113 617.001 10.4912C616.912 10.4987 616.826 10.5061 616.736 10.5136C616.486 10.8569 615.968 10.5203 616.299 10.7315C616.335 10.7544 616.545 10.7129 616.341 10.7944C616.341 10.7945 616.341 10.7945 616.342 10.7946C616.631 10.7552 616.665 10.7136 616.912 10.7596ZM618.853 10.5589C619.509 10.2834 617.918 10.4877 618.189 10.5326C618.213 10.5367 618.898 10.4429 618.853 10.5589ZM613.487 11.1032C613.787 11.0881 613.799 10.9612 613.766 10.9178C613.733 10.8743 613.528 10.9334 613.5 10.928C613.411 10.91 613.596 10.8826 613.48 10.8575C613.442 10.8494 612.916 10.8379 612.892 10.8448C612.761 10.8833 612.962 10.9747 612.925 10.9889C612.803 11.0357 612.631 10.9925 612.598 11.0499C612.528 11.1725 612.835 11.029 612.888 11.0237C613.048 11.0079 613.038 11.075 613.159 11.0807C613.279 11.0863 613.356 11.0587 613.462 11.0566C613.498 11.056 613.471 11.1037 613.487 11.1032ZM614.463 10.7746C614.156 10.8897 614.926 10.9447 615.016 10.9166C615.278 10.8335 614.611 10.7197 614.463 10.7746ZM624.493 10.1419C624.21 10.2291 624.883 10.2424 625.072 10.2025C625.035 10.1761 624.59 10.1119 624.493 10.1419ZM622.086 10.4677C622.349 10.4295 621.989 10.2963 621.769 10.3127C621.647 10.423 621.767 10.3951 621.911 10.3901C622.055 10.3852 621.882 10.4975 622.086 10.4677ZM610.219 11.1966C610.277 11.1946 611.189 11.0519 610.659 11.0503C610.619 11.0502 609.978 11.1059 609.93 11.1247C609.834 11.1627 610.072 11.2014 610.219 11.1966ZM620.83 10.6989C620.964 10.6017 621.102 10.5942 620.967 10.4986C620.967 10.4986 620.966 10.4986 620.966 10.4986C621.318 10.4444 621.347 10.6556 621.423 10.6463C621.688 10.6134 621.426 10.4784 621.59 10.4182C621.204 10.4895 621.309 10.3806 621.013 10.3929C620.947 10.3957 620.685 10.4734 620.649 10.5137C620.613 10.5541 620.755 10.6591 620.83 10.6989ZM608.925 11.3009C609.236 11.3151 609.511 11.1539 609.08 11.1585C608.87 11.1606 608.734 11.2923 608.925 11.3009ZM639.893 9.43306C639.844 9.3983 639.793 9.36377 639.74 9.32956C639.854 9.31375 639.967 9.29776 640.081 9.28178C639.992 9.29897 639.902 9.31599 639.811 9.33305C640.027 9.33353 640.129 9.39606 639.894 9.43303C639.894 9.43304 639.893 9.43305 639.893 9.43306ZM647.534 9.0123C647.632 9.04281 647.815 8.91972 647.79 8.91239C647.606 8.85794 647.398 8.97 647.534 9.0123ZM624.939 10.4549C625.297 10.4479 625.04 10.2815 624.82 10.2829C624.956 10.3092 624.736 10.4589 624.939 10.4549ZM644.847 9.16146C644.814 9.1477 644.781 9.13395 644.744 9.12038C644.858 9.13551 644.879 9.14899 644.847 9.16146ZM610.376 11.348C610.431 11.3585 610.835 11.3445 610.888 11.3238C610.998 11.2803 610.678 11.1997 610.495 11.2424C610.475 11.247 610.321 11.3375 610.376 11.348C610.376 11.348 610.376 11.348 610.376 11.348ZM640.38 9.4744C640.379 9.47269 640.38 9.47101 640.381 9.46941C640.38 9.47106 640.381 9.47274 640.38 9.4744ZM655.568 8.7666C655.566 8.7639 655.565 8.76117 655.565 8.75846C655.566 8.76106 655.568 8.76373 655.568 8.7666ZM613.226 11.3222C613.372 11.487 613.675 11.3752 613.425 11.3049C613.411 11.3013 613.259 11.3204 613.226 11.3222Z" fill="#5EA4FF" fill-opacity="0.7"/>
</g>
<defs>
<filter id="filter0_d_55838_307" x="0.943359" y="0.669922" width="733.037" height="31.5581" filterUnits="userSpaceOnUse" color-interpolation-filters="sRGB">
<feFlood flood-opacity="0" result="BackgroundImageFix"/>
<feColorMatrix in="SourceAlpha" type="matrix" values="0 0 0 0 0 0 0 0 0 0 0 0 0 0 0 0 0 0 127 0" result="hardAlpha"/>
<feOffset dx="1" dy="2"/>
<feGaussianBlur stdDeviation="2"/>
<feComposite in2="hardAlpha" operator="out"/>
<feColorMatrix type="matrix" values="0 0 0 0 0 0 0 0 0 0.566667 0 0 0 0 1 0 0 0 0.9 0"/>
<feBlend mode="normal" in2="BackgroundImageFix" result="effect1_dropShadow_55838_307"/>
<feBlend mode="normal" in="SourceGraphic" in2="effect1_dropShadow_55838_307" result="shape"/>
</filter>
<filter id="filter1_d_55838_307" x="8.97266" y="2.50439" width="73.5586" height="16.4141" filterUnits="userSpaceOnUse" color-interpolation-filters="sRGB">
<feFlood flood-opacity="0" result="BackgroundImageFix"/>
<feColorMatrix in="SourceAlpha" type="matrix" values="0 0 0 0 0 0 0 0 0 0 0 0 0 0 0 0 0 0 127 0" result="hardAlpha"/>
<feOffset dx="1" dy="2"/>
<feGaussianBlur stdDeviation="2"/>
<feComposite in2="hardAlpha" operator="out"/>
<feColorMatrix type="matrix" values="0 0 0 0 0 0 0 0 0 0.564706 0 0 0 0 1 0 0 0 0.9 0"/>
<feBlend mode="normal" in2="BackgroundImageFix" result="effect1_dropShadow_55838_307"/>
<feBlend mode="normal" in="SourceGraphic" in2="effect1_dropShadow_55838_307" result="shape"/>
</filter>
<filter id="filter2_d_55838_307" x="317" y="23.25" width="102.5" height="9.5" filterUnits="userSpaceOnUse" color-interpolation-filters="sRGB">
<feFlood flood-opacity="0" result="BackgroundImageFix"/>
<feColorMatrix in="SourceAlpha" type="matrix" values="0 0 0 0 0 0 0 0 0 0 0 0 0 0 0 0 0 0 127 0" result="hardAlpha"/>
<feOffset dx="1" dy="2"/>
<feGaussianBlur stdDeviation="2"/>
<feComposite in2="hardAlpha" operator="out"/>
<feColorMatrix type="matrix" values="0 0 0 0 0 0 0 0 0 0.564706 0 0 0 0 1 0 0 0 0.9 0"/>
<feBlend mode="normal" in2="BackgroundImageFix" result="effect1_dropShadow_55838_307"/>
<feBlend mode="normal" in="SourceGraphic" in2="effect1_dropShadow_55838_307" result="shape"/>
</filter>
<filter id="filter3_d_55838_307" x="592.012" y="4.96045" width="81.9727" height="13.2627" filterUnits="userSpaceOnUse" color-interpolation-filters="sRGB">
<feFlood flood-opacity="0" result="BackgroundImageFix"/>
<feColorMatrix in="SourceAlpha" type="matrix" values="0 0 0 0 0 0 0 0 0 0 0 0 0 0 0 0 0 0 127 0" result="hardAlpha"/>
<feOffset dx="1" dy="2"/>
<feGaussianBlur stdDeviation="2"/>
<feComposite in2="hardAlpha" operator="out"/>
<feColorMatrix type="matrix" values="0 0 0 0 0 0 0 0 0 0.564706 0 0 0 0 1 0 0 0 0.9 0"/>
<feBlend mode="normal" in2="BackgroundImageFix" result="effect1_dropShadow_55838_307"/>
<feBlend mode="normal" in="SourceGraphic" in2="effect1_dropShadow_55838_307" result="shape"/>
</filter>
</defs>
</svg>
