<svg width="48" height="48" viewBox="0 0 48 48" fill="none" xmlns="http://www.w3.org/2000/svg">
<g filter="url(#filter0_df_55855_424)">
<mask id="path-1-inside-1_55855_424" fill="white">
<path d="M20.325 27.275C20.1417 27.0583 20.05 26.8123 20.05 26.537C20.05 26.2623 20.1417 26.0333 20.325 25.85L22.175 24H15C14.7167 24 14.4793 23.904 14.288 23.712C14.096 23.5207 14 23.2833 14 23C14 22.7167 14.096 22.479 14.288 22.287C14.4793 22.0957 14.7167 22 15 22H22.175L20.325 20.15C20.125 19.95 20.025 19.7127 20.025 19.438C20.025 19.1627 20.125 18.925 20.325 18.725C20.5083 18.525 20.7377 18.425 21.013 18.425C21.2877 18.425 21.5167 18.5167 21.7 18.7L25.3 22.3C25.4 22.4 25.471 22.5083 25.513 22.625C25.5543 22.7417 25.575 22.8667 25.575 23C25.575 23.1333 25.5543 23.2583 25.513 23.375C25.471 23.4917 25.4 23.6 25.3 23.7L21.7 27.3C21.5 27.5 21.2667 27.5917 21 27.575C20.7333 27.5583 20.5083 27.4583 20.325 27.275ZM24 32C23.7167 32 23.4793 31.904 23.288 31.712C23.096 31.5207 23 31.2833 23 31C23 30.7167 23.096 30.4793 23.288 30.288C23.4793 30.096 23.7167 30 24 30H30V16H24C23.7167 16 23.4793 15.904 23.288 15.712C23.096 15.5207 23 15.2833 23 15C23 14.7167 23.096 14.479 23.288 14.287C23.4793 14.0957 23.7167 14 24 14H30C30.55 14 31.021 14.1957 31.413 14.587C31.8043 14.979 32 15.45 32 16V30C32 30.55 31.8043 31.021 31.413 31.413C31.021 31.8043 30.55 32 30 32H24Z"/>
</mask>
<path d="M20.325 27.275C20.1417 27.0583 20.05 26.8123 20.05 26.537C20.05 26.2623 20.1417 26.0333 20.325 25.85L22.175 24H15C14.7167 24 14.4793 23.904 14.288 23.712C14.096 23.5207 14 23.2833 14 23C14 22.7167 14.096 22.479 14.288 22.287C14.4793 22.0957 14.7167 22 15 22H22.175L20.325 20.15C20.125 19.95 20.025 19.7127 20.025 19.438C20.025 19.1627 20.125 18.925 20.325 18.725C20.5083 18.525 20.7377 18.425 21.013 18.425C21.2877 18.425 21.5167 18.5167 21.7 18.7L25.3 22.3C25.4 22.4 25.471 22.5083 25.513 22.625C25.5543 22.7417 25.575 22.8667 25.575 23C25.575 23.1333 25.5543 23.2583 25.513 23.375C25.471 23.4917 25.4 23.6 25.3 23.7L21.7 27.3C21.5 27.5 21.2667 27.5917 21 27.575C20.7333 27.5583 20.5083 27.4583 20.325 27.275ZM24 32C23.7167 32 23.4793 31.904 23.288 31.712C23.096 31.5207 23 31.2833 23 31C23 30.7167 23.096 30.4793 23.288 30.288C23.4793 30.096 23.7167 30 24 30H30V16H24C23.7167 16 23.4793 15.904 23.288 15.712C23.096 15.5207 23 15.2833 23 15C23 14.7167 23.096 14.479 23.288 14.287C23.4793 14.0957 23.7167 14 24 14H30C30.55 14 31.021 14.1957 31.413 14.587C31.8043 14.979 32 15.45 32 16V30C32 30.55 31.8043 31.021 31.413 31.413C31.021 31.8043 30.55 32 30 32H24Z" fill="#F7FEFF"/>
<path d="M20.325 27.275L11.1644 35.0263L11.4868 35.4073L11.8397 35.7603L20.325 27.275ZM22.175 24L30.6603 32.4853L51.1456 12H22.175V24ZM14.288 23.712L22.788 15.2415L22.7733 15.2267L22.7585 15.212L14.288 23.712ZM22.175 22V34H51.1456L30.6603 13.5147L22.175 22ZM20.325 18.725L28.8103 27.2103L28.9947 27.0259L29.1708 26.8337L20.325 18.725ZM25.513 22.625L36.8241 18.6176L36.8139 18.589L36.8036 18.5604L25.513 22.625ZM25.513 23.375L36.8036 27.4396L36.8139 27.411L36.8241 27.3824L25.513 23.375ZM25.3 23.7L33.7853 32.1853L33.7853 32.1853L25.3 23.7ZM21.7 27.3L13.2147 18.8147L13.2147 18.8147L21.7 27.3ZM23.288 31.712L31.788 23.2415L31.7733 23.2267L31.7585 23.212L23.288 31.712ZM23.288 30.288L31.7585 38.788L31.7733 38.7733L31.788 38.7585L23.288 30.288ZM30 30V42H42V30H30ZM30 16H42V4H30V16ZM23.288 15.712L31.788 7.24149L31.7733 7.22671L31.7585 7.21197L23.288 15.712ZM31.413 14.587L39.9055 6.10894L39.8983 6.10172L39.8911 6.0945L31.413 14.587ZM31.413 31.413L39.8911 39.9055L39.8983 39.8983L39.9055 39.8911L31.413 31.413ZM20.325 27.275L29.4856 19.5237C31.074 21.4008 32.05 23.88 32.05 26.537H20.05H8.05C8.05 29.7446 9.20936 32.7158 11.1644 35.0263L20.325 27.275ZM20.05 26.537H32.05C32.05 27.7541 31.8422 29.1626 31.2594 30.6187C30.671 32.0886 29.8073 33.3383 28.8103 34.3353L20.325 25.85L11.8397 17.3647C9.26182 19.9426 8.05 23.2895 8.05 26.537H20.05ZM20.325 25.85L28.8103 34.3353L30.6603 32.4853L22.175 24L13.6897 15.5147L11.8397 17.3647L20.325 25.85ZM22.175 24V12H15V24V36H22.175V24ZM15 24V12C16.2359 12 17.653 12.2146 19.1093 12.8036C20.5761 13.3969 21.8108 14.2608 22.788 15.2415L14.288 23.712L5.78797 32.1825C8.34211 34.7456 11.6879 36 15 36V24ZM14.288 23.712L22.7585 15.212C23.7392 16.1892 24.6031 17.4239 25.1964 18.8907C25.7854 20.347 26 21.7641 26 23H14H2C2 26.3121 3.25445 29.6579 5.81749 32.212L14.288 23.712ZM14 23H26C26 24.2361 25.7854 25.6509 25.1986 27.1036C24.6077 28.5664 23.7481 29.7975 22.7733 30.7723L14.288 22.287L5.80272 13.8017C3.25352 16.3509 2 19.6883 2 23H14ZM14.288 22.287L22.7733 30.7723C21.794 31.7515 20.5594 32.6116 19.0958 33.2016C17.6432 33.7871 16.2307 34 15 34V22V10C11.701 10 8.35988 11.2446 5.80272 13.8017L14.288 22.287ZM15 22V34H22.175V22V10H15V22ZM22.175 22L30.6603 13.5147L28.8103 11.6647L20.325 20.15L11.8397 28.6353L13.6897 30.4853L22.175 22ZM20.325 20.15L28.8103 11.6647C29.6991 12.5535 30.5494 13.7171 31.1585 15.1625C31.7704 16.6149 32.025 18.0828 32.025 19.438H20.025H8.025C8.025 22.9997 9.46422 26.2598 11.8397 28.6353L20.325 20.15ZM20.025 19.438H32.025C32.025 20.7889 31.7719 22.2548 31.1608 23.7072C30.5524 25.1531 29.7018 26.3188 28.8103 27.2103L20.325 18.725L11.8397 10.2397C9.45799 12.6214 8.025 15.8842 8.025 19.438H20.025ZM20.325 18.725L29.1708 26.8337C28.2263 27.8641 26.9793 28.8246 25.4309 29.4998C23.8867 30.1731 22.3589 30.425 21.013 30.425V18.425V6.425C17.4307 6.425 13.9735 7.89523 11.4792 10.6163L20.325 18.725ZM21.013 18.425V30.425C19.7959 30.425 18.3874 30.2172 16.9313 29.6344C15.4614 29.046 14.2117 28.1823 13.2147 27.1853L21.7 18.7L30.1853 10.2147C27.6074 7.63681 24.2605 6.425 21.013 6.425V18.425ZM21.7 18.7L13.2147 27.1853L16.8147 30.7853L25.3 22.3L33.7853 13.8147L30.1853 10.2147L21.7 18.7ZM25.3 22.3L16.8147 30.7853C15.8413 29.8119 14.8575 28.4539 14.2224 26.6896L25.513 22.625L36.8036 18.5604C36.0845 16.5627 34.9587 14.9881 33.7853 13.8147L25.3 22.3ZM25.513 22.625L14.2019 26.6324C13.7533 25.3662 13.575 24.1262 13.575 23H25.575H37.575C37.575 21.6071 37.3554 20.1172 36.8241 18.6176L25.513 22.625ZM25.575 23H13.575C13.575 21.8738 13.7533 20.6338 14.2019 19.3676L25.513 23.375L36.8241 27.3824C37.3554 25.8828 37.575 24.3929 37.575 23H25.575ZM25.513 23.375L14.2224 19.3104C14.8575 17.5461 15.8413 16.1881 16.8147 15.2147L25.3 23.7L33.7853 32.1853C34.9587 31.0119 36.0845 29.4373 36.8036 27.4396L25.513 23.375ZM25.3 23.7L16.8147 15.2147L13.2147 18.8147L21.7 27.3L30.1853 35.7853L33.7853 32.1853L25.3 23.7ZM21.7 27.3L13.2147 18.8147C14.1319 17.8975 15.3827 16.9801 16.9871 16.3497C18.6091 15.7125 20.2487 15.5046 21.7485 15.5984L21 27.575L20.2515 39.5516C24.1763 39.7969 27.7125 38.2581 30.1853 35.7853L21.7 27.3ZM21 27.575L21.7485 15.5984C24.3023 15.758 26.8579 16.8374 28.8103 18.7897L20.325 27.275L11.8397 35.7603C14.1587 38.0793 17.1644 39.3587 20.2515 39.5516L21 27.575ZM24 32V20C25.2359 20 26.653 20.2146 28.1093 20.8036C29.5761 21.3969 30.8108 22.2608 31.788 23.2415L23.288 31.712L14.788 40.1825C17.3421 42.7456 20.6879 44 24 44V32ZM23.288 31.712L31.7585 23.212C32.7392 24.1892 33.6031 25.4239 34.1964 26.8907C34.7854 28.347 35 29.7641 35 31H23H11C11 34.3121 12.2544 37.6579 14.8175 40.212L23.288 31.712ZM23 31H35C35 32.2359 34.7854 33.653 34.1964 35.1093C33.6031 36.5761 32.7392 37.8108 31.7585 38.788L23.288 30.288L14.8175 21.788C12.2544 24.3421 11 27.6879 11 31H23ZM23.288 30.288L31.788 38.7585C30.8108 39.7392 29.5761 40.6031 28.1093 41.1964C26.653 41.7854 25.2359 42 24 42V30V18C20.6879 18 17.3421 19.2544 14.788 21.8175L23.288 30.288ZM24 30V42H30V30V18H24V30ZM30 30H42V16H30H18V30H30ZM30 16V4H24V16V28H30V16ZM24 16V4C25.2359 4 26.653 4.21458 28.1093 4.8036C29.5761 5.39694 30.8108 6.26082 31.788 7.24149L23.288 15.712L14.788 24.1825C17.3421 26.7456 20.6879 28 24 28V16ZM23.288 15.712L31.7585 7.21197C32.7392 8.18924 33.6031 9.42389 34.1964 10.8907C34.7854 12.347 35 13.7641 35 15H23H11C11 18.3121 12.2544 21.6579 14.8175 24.212L23.288 15.712ZM23 15H35C35 16.2361 34.7854 17.6509 34.1986 19.1036C33.6077 20.5664 32.7481 21.7975 31.7733 22.7723L23.288 14.287L14.8027 5.80172C12.2535 8.35091 11 11.6883 11 15H23ZM23.288 14.287L31.7733 22.7723C30.794 23.7515 29.5594 24.6116 28.0958 25.2016C26.6432 25.7871 25.2307 26 24 26V14V2C20.701 2 17.3599 3.24457 14.8027 5.80172L23.288 14.287ZM24 14V26H30V14V2H24V14ZM30 14V26C28.82 26 27.4969 25.7831 26.1621 25.2285C24.8289 24.6747 23.7526 23.8958 22.9349 23.0795L31.413 14.587L39.8911 6.0945C37.2672 3.47506 33.7543 2 30 2V14ZM31.413 14.587L22.9205 23.0651C22.1042 22.2474 21.3253 21.1711 20.7715 19.8379C20.2169 18.5031 20 17.18 20 16H32H44C44 12.2457 42.5249 8.73285 39.9055 6.10894L31.413 14.587ZM32 16H20V30H32H44V16H32ZM32 30H20C20 28.82 20.2169 27.4969 20.7715 26.1621C21.3253 24.8289 22.1042 23.7526 22.9205 22.9349L31.413 31.413L39.9055 39.8911C42.5249 37.2672 44 33.7543 44 30H32ZM31.413 31.413L22.9349 22.9205C23.7526 22.1042 24.8289 21.3253 26.1621 20.7715C27.4969 20.2169 28.82 20 30 20V32V44C33.7543 44 37.2672 42.5249 39.8911 39.9055L31.413 31.413ZM30 32V20H24V32V44H30V32Z" fill="#66B3FF" fill-opacity="0.6" mask="url(#path-1-inside-1_55855_424)"/>
</g>
<defs>
<filter id="filter0_df_55855_424" x="0" y="0" width="48" height="48" filterUnits="userSpaceOnUse" color-interpolation-filters="sRGB">
<feFlood flood-opacity="0" result="BackgroundImageFix"/>
<feColorMatrix in="SourceAlpha" type="matrix" values="0 0 0 0 0 0 0 0 0 0 0 0 0 0 0 0 0 0 127 0" result="hardAlpha"/>
<feOffset dx="1" dy="1"/>
<feGaussianBlur stdDeviation="7.5"/>
<feComposite in2="hardAlpha" operator="out"/>
<feColorMatrix type="matrix" values="0 0 0 0 0.4 0 0 0 0 0.701961 0 0 0 0 1 0 0 0 1 0"/>
<feBlend mode="normal" in2="BackgroundImageFix" result="effect1_dropShadow_55855_424"/>
<feBlend mode="normal" in="SourceGraphic" in2="effect1_dropShadow_55855_424" result="shape"/>
<feGaussianBlur stdDeviation="0.5" result="effect2_foregroundBlur_55855_424"/>
</filter>
</defs>
</svg>
