<svg width="805" height="404" viewBox="0 0 805 404" fill="none" xmlns="http://www.w3.org/2000/svg">
<g filter="url(#filter0_df_55845_312)">
<path d="M286.5 80.0005H76.5L94 87L112 96.5005L125 104L137 113L148.5 124L158.5 135.5L166 150L172 166.5V185L170.5 206.5H225H249L275 209.5L299.5 214L332 226L352 238.5L361.5 245.5L370.5 255.5L384 272.5L391.5 286.5L398 301.5L404 286.5L412 272.5L423 255.5L441.5 239.5L465 226L498 213L515.5 210L537.5 206.5H557.5H592.5H624.5L623 194.5V183L626.5 155L637 135.5L659.5 112.5L684 96.5005L716 80.0005H506.5L499.5 103.5L485 120L472 125L459 127.5L447 129.5L433 130.5L422 127.5L419.5 112.5L417 90.0005L410.5 110H397H384.5L378.5 90.0005L375 119L369.5 129.5H355L326 126.5C314.202 121.808 308.433 118.39 300.5 110L286.5 80.0005Z" fill="#F7FEFF" shape-rendering="crispEdges"/>
<path d="M286.5 80.0005H76.5L94 87L112 96.5005L125 104L137 113L148.5 124L158.5 135.5L166 150L172 166.5V185L170.5 206.5H225H249L275 209.5L299.5 214L332 226L352 238.5L361.5 245.5L370.5 255.5L384 272.5L391.5 286.5L398 301.5L404 286.5L412 272.5L423 255.5L441.5 239.5L465 226L498 213L515.5 210L537.5 206.5H557.5H592.5H624.5L623 194.5V183L626.5 155L637 135.5L659.5 112.5L684 96.5005L716 80.0005H506.5L499.5 103.5L485 120L472 125L459 127.5L447 129.5L433 130.5L422 127.5L419.5 112.5L417 90.0005L410.5 110H397H384.5L378.5 90.0005L375 119L369.5 129.5H355L326 126.5C314.202 121.808 308.433 118.39 300.5 110L286.5 80.0005Z" stroke="#66B3FF" stroke-opacity="0.6" stroke-width="12" shape-rendering="crispEdges"/>
</g>
<defs>
<filter id="filter0_df_55845_312" x="0.271484" y="0.000488281" width="804.479" height="403.101" filterUnits="userSpaceOnUse" color-interpolation-filters="sRGB">
<feFlood flood-opacity="0" result="BackgroundImageFix"/>
<feColorMatrix in="SourceAlpha" type="matrix" values="0 0 0 0 0 0 0 0 0 0 0 0 0 0 0 0 0 0 127 0" result="hardAlpha"/>
<feOffset dx="6" dy="6"/>
<feGaussianBlur stdDeviation="40"/>
<feComposite in2="hardAlpha" operator="out"/>
<feColorMatrix type="matrix" values="0 0 0 0 0.4 0 0 0 0 0.701961 0 0 0 0 1 0 0 0 0.9 0"/>
<feBlend mode="normal" in2="BackgroundImageFix" result="effect1_dropShadow_55845_312"/>
<feBlend mode="normal" in="SourceGraphic" in2="effect1_dropShadow_55845_312" result="shape"/>
<feGaussianBlur stdDeviation="2" result="effect2_foregroundBlur_55845_312"/>
</filter>
</defs>
</svg>
