<svg width="70" height="65" viewBox="0 0 70 65" fill="none" xmlns="http://www.w3.org/2000/svg">
<g filter="url(#filter0_df_55847_314)">
<mask id="path-1-inside-1_55847_314" fill="white">
<path d="M42.0512 39.8125C41.6339 39.3912 41.4253 38.9129 41.4253 38.3775C41.4253 37.8434 41.6339 37.3981 42.0512 37.0417L46.2617 33.4444H29.9317C29.2869 33.4444 28.7467 33.2578 28.3112 32.8844C27.8743 32.5124 27.6558 32.0509 27.6558 31.5C27.6558 30.9491 27.8743 30.4869 28.3112 30.1136C28.7467 29.7416 29.2869 29.5556 29.9317 29.5556H46.2617L42.0512 25.9583C41.596 25.5694 41.3684 25.108 41.3684 24.5739C41.3684 24.0385 41.596 23.5764 42.0512 23.1875C42.4685 22.7986 42.9904 22.6042 43.6171 22.6042C44.2422 22.6042 44.7634 22.7824 45.1807 23.1389L53.3741 30.1389C53.6017 30.3333 53.7633 30.544 53.8589 30.7708C53.953 30.9977 54 31.2407 54 31.5C54 31.7593 53.953 32.0023 53.8589 32.2292C53.7633 32.456 53.6017 32.6667 53.3741 32.8611L45.1807 39.8611C44.6875 40.2824 44.1474 40.4684 43.5602 40.4192C42.9715 40.3712 42.4685 40.169 42.0512 39.8125ZM18.5519 49C17.3001 49 16.2282 48.6195 15.336 47.8586C14.4453 47.0964 14 46.1806 14 45.1111V17.8889C14 16.8194 14.4453 15.9036 15.336 15.1414C16.2282 14.3805 17.3001 14 18.5519 14H32.2077C32.8525 14 33.3935 14.186 33.8304 14.5581C34.2659 14.9314 34.4836 15.3935 34.4836 15.9444C34.4836 16.4954 34.2659 16.9569 33.8304 17.3289C33.3935 17.7022 32.8525 17.8889 32.2077 17.8889H18.5519V45.1111H32.2077C32.8525 45.1111 33.3935 45.2978 33.8304 45.6711C34.2659 46.0431 34.4836 46.5046 34.4836 47.0556C34.4836 47.6065 34.2659 48.068 33.8304 48.44C33.3935 48.8133 32.8525 49 32.2077 49H18.5519Z"/>
</mask>
<path d="M42.0512 39.8125C41.6339 39.3912 41.4253 38.9129 41.4253 38.3775C41.4253 37.8434 41.6339 37.3981 42.0512 37.0417L46.2617 33.4444H29.9317C29.2869 33.4444 28.7467 33.2578 28.3112 32.8844C27.8743 32.5124 27.6558 32.0509 27.6558 31.5C27.6558 30.9491 27.8743 30.4869 28.3112 30.1136C28.7467 29.7416 29.2869 29.5556 29.9317 29.5556H46.2617L42.0512 25.9583C41.596 25.5694 41.3684 25.108 41.3684 24.5739C41.3684 24.0385 41.596 23.5764 42.0512 23.1875C42.4685 22.7986 42.9904 22.6042 43.6171 22.6042C44.2422 22.6042 44.7634 22.7824 45.1807 23.1389L53.3741 30.1389C53.6017 30.3333 53.7633 30.544 53.8589 30.7708C53.953 30.9977 54 31.2407 54 31.5C54 31.7593 53.953 32.0023 53.8589 32.2292C53.7633 32.456 53.6017 32.6667 53.3741 32.8611L45.1807 39.8611C44.6875 40.2824 44.1474 40.4684 43.5602 40.4192C42.9715 40.3712 42.4685 40.169 42.0512 39.8125ZM18.5519 49C17.3001 49 16.2282 48.6195 15.336 47.8586C14.4453 47.0964 14 46.1806 14 45.1111V17.8889C14 16.8194 14.4453 15.9036 15.336 15.1414C16.2282 14.3805 17.3001 14 18.5519 14H32.2077C32.8525 14 33.3935 14.186 33.8304 14.5581C34.2659 14.9314 34.4836 15.3935 34.4836 15.9444C34.4836 16.4954 34.2659 16.9569 33.8304 17.3289C33.3935 17.7022 32.8525 17.8889 32.2077 17.8889H18.5519V45.1111H32.2077C32.8525 45.1111 33.3935 45.2978 33.8304 45.6711C34.2659 46.0431 34.4836 46.5046 34.4836 47.0556C34.4836 47.6065 34.2659 48.068 33.8304 48.44C33.3935 48.8133 32.8525 49 32.2077 49H18.5519Z" fill="#F7FEFF"/>
<path d="M42.0512 39.8125L33.5252 48.2568L33.8767 48.6117L34.2565 48.9362L42.0512 39.8125ZM42.0512 37.0417L49.846 46.1654L49.846 46.1654L42.0512 37.0417ZM46.2617 33.4444L54.0565 42.5681L78.7816 21.4444L46.2617 21.4444V33.4444ZM28.3112 32.8844L36.1216 23.7741L36.106 23.7607L36.0903 23.7474L28.3112 32.8844ZM46.2617 29.5556V41.5556H78.7816L54.0565 20.4319L46.2617 29.5556ZM42.0512 25.9583L49.846 16.8346L49.846 16.8346L42.0512 25.9583ZM42.0512 23.1875L49.846 32.3112L50.0431 32.1428L50.2328 31.966L42.0512 23.1875ZM45.1807 23.1389L52.9754 14.0152L52.9754 14.0152L45.1807 23.1389ZM53.3741 30.1389L45.5794 39.2626L45.5794 39.2626L53.3741 30.1389ZM53.8589 30.7708L64.9436 26.1741L64.9305 26.1426L64.9172 26.1111L53.8589 30.7708ZM53.8589 32.2292L64.9172 36.8889L64.9305 36.8574L64.9436 36.8259L53.8589 32.2292ZM53.3741 32.8611L45.5794 23.7374L45.5794 23.7374L53.3741 32.8611ZM45.1807 39.8611L52.9754 48.9848L52.9754 48.9848L45.1807 39.8611ZM43.5602 40.4192L44.5633 28.4612L44.5489 28.46L44.5346 28.4588L43.5602 40.4192ZM15.336 47.8586L7.53357 56.9758L7.54124 56.9823L7.54891 56.9889L15.336 47.8586ZM15.336 15.1414L7.54891 6.01114L7.54124 6.01768L7.53357 6.02424L15.336 15.1414ZM33.8304 14.5581L41.6409 5.44776L41.6252 5.43434L41.6095 5.42098L33.8304 14.5581ZM18.5519 17.8889V5.88889H6.55192V17.8889H18.5519ZM18.5519 45.1111H6.55192V57.1111H18.5519V45.1111ZM33.8304 45.6711L26.0357 54.7948L33.8304 45.6711ZM33.8304 48.44L26.0357 39.3163L33.8304 48.44ZM42.0512 39.8125L50.5772 31.3682C51.2703 32.0679 52.0181 33.0496 52.5811 34.3403C53.1541 35.6542 53.4253 37.0381 53.4253 38.3775H41.4253H29.4253C29.4253 42.4293 31.1445 45.8531 33.5252 48.2568L42.0512 39.8125ZM41.4253 38.3775H53.4253C53.4253 39.7164 53.1531 41.2299 52.4482 42.7343C51.7474 44.23 50.7851 45.363 49.846 46.1654L42.0512 37.0417L34.2565 27.918C31.2551 30.4821 29.4253 34.2239 29.4253 38.3775H41.4253ZM42.0512 37.0417L49.846 46.1654L54.0565 42.5681L46.2617 33.4444L38.467 24.3207L34.2565 27.918L42.0512 37.0417ZM46.2617 33.4444V21.4444H29.9317V33.4444V45.4444H46.2617V33.4444ZM29.9317 33.4444V21.4444C31.772 21.4444 34.1101 22.0496 36.1216 23.7741L28.3112 32.8844L20.5008 41.9947C23.3833 44.466 26.8018 45.4444 29.9317 45.4444V33.4444ZM28.3112 32.8844L36.0903 23.7474C37.0051 24.5262 37.9621 25.6388 38.6654 27.1243C39.375 28.6229 39.6558 30.1422 39.6558 31.5H27.6558H15.6558C15.6558 35.7326 17.5451 39.4784 20.5322 42.0215L28.3112 32.8844ZM27.6558 31.5H39.6558C39.6558 32.858 39.3749 34.3746 38.6682 35.8694C37.9679 37.3506 37.0155 38.4603 36.106 39.2373L28.3112 30.1136L20.5165 20.9899C17.5429 23.5303 15.6558 27.2692 15.6558 31.5H27.6558ZM28.3112 30.1136L36.106 39.2373C34.0937 40.9565 31.7611 41.5556 29.9317 41.5556V29.5556V17.5556C26.8126 17.5556 23.3997 18.5267 20.5165 20.9899L28.3112 30.1136ZM29.9317 29.5556V41.5556H46.2617V29.5556V17.5556H29.9317V29.5556ZM46.2617 29.5556L54.0565 20.4319L49.846 16.8346L42.0512 25.9583L34.2565 35.082L38.467 38.6793L46.2617 29.5556ZM42.0512 25.9583L49.846 16.8346C50.6559 17.5266 51.5871 18.5643 52.3014 20.0127C53.0331 21.4963 53.3684 23.0721 53.3684 24.5739H41.3684H29.3684C29.3684 29.0677 31.4948 32.7226 34.2565 35.082L42.0512 25.9583ZM41.3684 24.5739H53.3684C53.3684 26.0703 53.0351 27.6438 52.3044 29.1276C51.5906 30.5769 50.6588 31.6167 49.846 32.3112L42.0512 23.1875L34.2565 14.0638C31.4869 16.4299 29.3684 20.088 29.3684 24.5739H41.3684ZM42.0512 23.1875L50.2328 31.966C49.3143 32.822 48.1999 33.5275 46.9447 33.9951C45.7087 34.4555 44.5565 34.6042 43.6171 34.6042V22.6042V10.6042C40.2795 10.6042 36.7355 11.738 33.8696 14.409L42.0512 23.1875ZM43.6171 22.6042V34.6042C41.8067 34.6042 39.4424 34.0195 37.3859 32.2626L45.1807 23.1389L52.9754 14.0152C50.0844 11.5453 46.6777 10.6042 43.6171 10.6042V22.6042ZM45.1807 23.1389L37.3859 32.2626L45.5794 39.2626L53.3741 30.1389L61.1689 21.0152L52.9754 14.0152L45.1807 23.1389ZM53.3741 30.1389L45.5794 39.2626C44.689 38.5019 43.5706 37.2581 42.8005 35.4306L53.8589 30.7708L64.9172 26.1111C63.9559 23.8298 62.5144 22.1647 61.1689 21.0152L53.3741 30.1389ZM53.8589 30.7708L42.7742 35.3675C42.2308 34.057 42 32.7291 42 31.5H54H66C66 29.7524 65.6752 27.9383 64.9436 26.1741L53.8589 30.7708ZM54 31.5H42C42 30.2709 42.2308 28.943 42.7742 27.6325L53.8589 32.2292L64.9436 36.8259C65.6752 35.0617 66 33.2476 66 31.5H54ZM53.8589 32.2292L42.8005 27.5694C43.5706 25.7419 44.689 24.4981 45.5794 23.7374L53.3741 32.8611L61.1689 41.9848C62.5144 40.8353 63.9559 39.1702 64.9172 36.8889L53.8589 32.2292ZM53.3741 32.8611L45.5794 23.7374L37.3859 30.7374L45.1807 39.8611L52.9754 48.9848L61.1689 41.9848L53.3741 32.8611ZM45.1807 39.8611L37.3859 30.7374C38.1305 30.1012 39.1653 29.4296 40.4984 28.9705C41.8549 28.5034 43.2489 28.3509 44.5633 28.4612L43.5602 40.4192L42.557 52.3772C46.6749 52.7226 50.3157 51.2571 52.9754 48.9848L45.1807 39.8611ZM43.5602 40.4192L44.5346 28.4588C46.2582 28.5992 48.1954 29.2787 49.846 30.6888L42.0512 39.8125L34.2565 48.9362C36.7415 51.0593 39.6847 52.1432 42.5857 52.3795L43.5602 40.4192ZM18.5519 49V37C19.1566 37 19.947 37.095 20.8228 37.4058C21.7097 37.7206 22.4898 38.1883 23.1231 38.7284L15.336 47.8586L7.54891 56.9889C10.7665 59.7331 14.6543 61 18.5519 61V49ZM15.336 47.8586L23.1384 38.7415C23.7566 39.2706 24.5273 40.1217 25.1258 41.3525C25.7381 42.6118 26 43.9213 26 45.1111H14H2C2 50.0503 4.268 54.1811 7.53357 56.9758L15.336 47.8586ZM14 45.1111H26V17.8889H14H2V45.1111H14ZM14 17.8889H26C26 19.0787 25.7381 20.3882 25.1258 21.6475C24.5273 22.8783 23.7566 23.7294 23.1384 24.2585L15.336 15.1414L7.53357 6.02424C4.268 8.81891 2 12.9497 2 17.8889H14ZM15.336 15.1414L23.1231 24.2716C22.4898 24.8117 21.7097 25.2794 20.8228 25.5942C19.947 25.905 19.1566 26 18.5519 26V14V2C14.6543 2 10.7665 3.26693 7.54891 6.01114L15.336 15.1414ZM18.5519 14V26H32.2077V14V2H18.5519V14ZM32.2077 14V26C30.3776 26 28.055 25.401 26.0514 23.6951L33.8304 14.5581L41.6095 5.42098C38.7319 2.97107 35.3275 2 32.2077 2V14ZM33.8304 14.5581L26.02 23.6684C25.1105 22.8886 24.1616 21.778 23.4649 20.2992C22.7621 18.8077 22.4836 17.2963 22.4836 15.9444H34.4836H46.4836C46.4836 11.7293 44.6103 7.99356 41.6409 5.44776L33.8304 14.5581ZM34.4836 15.9444H22.4836C22.4836 14.5928 22.7621 13.0787 23.4676 11.5833C24.1674 10.1003 25.1209 8.98675 26.0357 8.20519L33.8304 17.3289L41.6252 26.4526C44.6082 23.9041 46.4836 20.1614 46.4836 15.9444H34.4836ZM33.8304 17.3289L26.0357 8.20519C28.0387 6.49398 30.3668 5.88889 32.2077 5.88889V17.8889V29.8889C35.3383 29.8889 38.7483 28.9105 41.6252 26.4526L33.8304 17.3289ZM32.2077 17.8889V5.88889H18.5519V17.8889V29.8889H32.2077V17.8889ZM18.5519 17.8889H6.55192V45.1111H18.5519H30.5519V17.8889H18.5519ZM18.5519 45.1111V57.1111H32.2077V45.1111V33.1111H18.5519V45.1111ZM32.2077 45.1111V57.1111C30.3668 57.1111 28.0387 56.506 26.0357 54.7948L33.8304 45.6711L41.6252 36.5474C38.7483 34.0895 35.3383 33.1111 32.2077 33.1111V45.1111ZM33.8304 45.6711L26.0357 54.7948C25.1209 54.0133 24.1674 52.8997 23.4676 51.4167C22.7621 49.9213 22.4836 48.4072 22.4836 47.0556H34.4836H46.4836C46.4836 42.8386 44.6082 39.0959 41.6252 36.5474L33.8304 45.6711ZM34.4836 47.0556H22.4836C22.4836 45.7039 22.7621 44.1898 23.4676 42.6944C24.1674 41.2114 25.1209 40.0979 26.0357 39.3163L33.8304 48.44L41.6252 57.5637C44.6082 55.0152 46.4836 51.2725 46.4836 47.0556H34.4836ZM33.8304 48.44L26.0357 39.3163C28.0387 37.6051 30.3668 37 32.2077 37V49V61C35.3383 61 38.7483 60.0216 41.6252 57.5637L33.8304 48.44ZM32.2077 49V37H18.5519V49V61H32.2077V49Z" fill="#66B3FF" fill-opacity="0.6" mask="url(#path-1-inside-1_55847_314)"/>
</g>
<defs>
<filter id="filter0_df_55847_314" x="0" y="0" width="70" height="65" filterUnits="userSpaceOnUse" color-interpolation-filters="sRGB">
<feFlood flood-opacity="0" result="BackgroundImageFix"/>
<feColorMatrix in="SourceAlpha" type="matrix" values="0 0 0 0 0 0 0 0 0 0 0 0 0 0 0 0 0 0 127 0" result="hardAlpha"/>
<feOffset dx="1" dy="1"/>
<feGaussianBlur stdDeviation="7.5"/>
<feComposite in2="hardAlpha" operator="out"/>
<feColorMatrix type="matrix" values="0 0 0 0 0.4 0 0 0 0 0.701961 0 0 0 0 1 0 0 0 1 0"/>
<feBlend mode="normal" in2="BackgroundImageFix" result="effect1_dropShadow_55847_314"/>
<feBlend mode="normal" in="SourceGraphic" in2="effect1_dropShadow_55847_314" result="shape"/>
<feGaussianBlur stdDeviation="0.5" result="effect2_foregroundBlur_55847_314"/>
</filter>
</defs>
</svg>
